<svg width="43" height="44" viewBox="0 0 43 44" fill="none" xmlns="http://www.w3.org/2000/svg">
<g filter="url(#filter0_d_887_168)">
<rect x="5.5" y="6" width="32" height="32" rx="8" fill="url(#paint0_linear_887_168)" shape-rendering="crispEdges"/>
<path d="M22.3504 11.3334C17.7358 11.3334 14.0645 13.8435 12.5146 17.7037C12.5946 17.6837 12.6655 17.6657 12.7265 17.6467C12.9553 17.5628 13.0443 17.5348 13.1562 17.4139C13.1917 17.3677 13.2216 17.3174 13.2451 17.264C13.3298 17.1087 13.4235 16.9586 13.5259 16.8144C13.7262 16.5539 13.9467 16.3097 14.1854 16.0839C14.5961 15.6922 15.6544 14.8738 17.2961 13.8435L18.0956 13.3439L18.0376 15.3135L20.3069 13.8225L19.6274 16.6545L20.3769 16.7634L20.4368 16.9542C21.0374 16.6826 21.6903 16.5461 22.3494 16.5545C25.0994 16.5545 27.1009 18.8968 27.1009 22.1784C27.1009 24.9574 25.602 26.6751 23.5286 27.2007C23.9585 27.6609 24.4458 28.0639 24.9785 28.3998L26.3295 29.2622L24.7307 29.3222L24.5108 29.3312C23.8562 29.3328 23.2061 29.2216 22.5893 29.0024C22.4594 28.9524 22.3274 28.9025 22.1995 28.8405C22.3794 29.1623 22.5689 29.4724 22.7681 29.7708C23.3664 30.6829 24.0503 31.5359 24.8106 32.318C29.6521 31.3087 32.8477 27.2537 32.8477 21.9616C32.8477 15.8041 28.5009 11.3334 22.3504 11.3334Z" fill="white"/>
<path d="M22.9619 27.3116C22.8049 27.1332 22.6581 26.946 22.5223 26.751C21.7859 25.7223 21.3062 24.5324 21.1233 23.2806C20.3207 23.8214 19.64 24.5239 19.1247 25.3431C19.1129 24.7101 19.3088 24.0906 19.6823 23.5794C20.113 22.9898 20.6816 22.739 21.0054 22.5981C21.544 22.3603 21.9457 22.3403 22.2764 22.2983C22.3654 22.2893 22.4453 22.2803 22.5253 22.2703C23.2247 22.1394 24.1341 21.5089 25.0174 19.2725C24.2292 18.9204 23.4025 18.6615 22.5542 18.5011C22.126 18.4158 21.6916 18.3653 21.2552 18.3502C20.9354 18.3222 20.6456 18.3222 20.3848 18.3222C20.2529 17.9535 20.136 17.5928 20.0051 17.232H19.9641C19.4355 17.1521 18.9069 17.0702 18.3743 16.9902H18.3543C18.3244 16.9907 18.2946 16.9877 18.2654 16.9812C18.0365 16.9422 17.8167 16.9103 17.5839 16.8813C17.5449 16.8713 17.5139 16.8713 17.476 16.8613C17.485 16.4616 17.5039 16.0619 17.5139 15.6702V15.6612C17.5359 15.1885 17.5449 14.7299 17.5649 14.2672C16.045 15.2205 14.9668 16.0399 14.5341 16.4506C14.3188 16.6591 14.1185 16.8825 13.9346 17.1191C13.6538 17.4888 13.6927 17.5598 13.5239 17.7517C13.1721 18.1304 12.8504 18.0594 12.2938 18.3602C12.2938 18.3602 12.2848 18.3602 12.2848 18.3722C11.9445 18.5666 11.6447 18.8244 11.4014 19.1316C10.8918 19.7112 10.681 20.2908 10.5121 20.8004C10.2753 21.5093 10.1539 22.2515 10.1523 22.9988C10.3844 22.7052 10.6694 22.4578 10.9927 22.2693C11.2125 22.1397 11.4512 22.0453 11.7002 21.9895C11.2039 22.8198 10.9045 23.7527 10.825 24.7167C10.7455 25.6807 10.888 26.6501 11.2415 27.5505C11.334 27.1208 11.4787 26.704 11.6722 26.3094C11.8269 25.9907 12.0148 25.6892 12.2328 25.41C12.2528 25.388 12.2708 25.3691 12.2848 25.3501C12.2848 25.41 12.2848 25.49 12.2938 25.5889V25.5989C12.3642 27.0107 12.9046 28.3585 13.8291 29.4279C14.7537 30.4972 16.0092 31.2268 17.396 31.5006C15.7832 31.0929 14.9728 30.2605 14.655 29.8728C14.3553 29.5159 14.115 29.113 13.9436 28.6796C13.9412 28.6796 13.9389 28.6787 13.9372 28.677C13.9355 28.6753 13.9346 28.673 13.9346 28.6706C13.0742 26.5722 13.7947 24.088 14.0345 23.2276C14.0645 23.1277 14.0964 23.0278 14.1254 22.9378C14.3242 22.3203 14.5826 21.7236 14.8969 21.1562C14.4689 21.3308 14.0597 21.5484 13.6757 21.8057C13.6348 21.8377 13.5868 21.8676 13.5438 21.8996C12.9082 22.3684 12.3659 22.952 11.945 23.6203C12.0629 23.0334 12.24 22.4599 12.4736 21.9086C12.6708 21.4405 12.9047 20.9888 13.1731 20.5576C13.2731 20.3887 13.373 20.2378 13.4729 20.0969C13.332 20.1449 13.1831 20.1969 13.0422 20.2478C12.6225 20.3977 12.2138 20.5476 11.7931 20.6875C11.7308 20.7145 11.6671 20.7382 11.6023 20.7584C11.6634 20.5439 11.751 20.3378 11.8631 20.1449C11.9574 19.9735 12.0788 19.8186 12.2228 19.6862C12.3586 19.5491 12.5176 19.4371 12.6925 19.3555C13.0622 19.1556 13.7247 18.8968 15.0248 18.4761C15.5154 18.3162 15.7642 18.2463 15.9651 17.9765C16.2938 17.5378 16.1749 16.8973 16.054 16.5086C15.9041 16.6255 15.7542 16.7464 15.6043 16.8683C15.2826 17.1261 14.9838 17.3879 14.713 17.6367C14.9252 17.1722 15.2091 16.744 15.5544 16.3677C15.8712 16.0243 16.2385 15.7312 16.6436 15.4983C16.5987 15.7658 16.5757 16.0365 16.5746 16.3077C16.5875 16.8389 16.6965 17.3633 16.8964 17.8556C17.368 17.7409 17.8614 17.7519 18.3273 17.8876C18.5457 17.9506 18.7538 18.0452 18.9449 18.1683C19.1512 18.2801 19.3373 18.4257 19.4955 18.599C19.3956 18.659 19.2956 18.7159 19.1957 18.7779C19.0338 18.6789 18.8628 18.5955 18.6851 18.5291C18.4289 18.4333 18.159 18.3793 17.8857 18.3692C16.7035 18.3092 15.9031 19.0687 15.7542 19.2176C16.1702 19.5282 16.6599 19.7248 17.1752 19.7882C17.511 19.8324 17.8524 19.7836 18.1625 19.6473C18.5751 19.4648 19.0087 19.3343 19.4535 19.2585C20.1184 19.1535 20.794 19.1331 21.464 19.1976C21.8378 19.2296 22.1965 19.2685 22.5452 19.3185C22.815 19.3475 23.0359 19.3795 23.1758 19.4074C23.1689 19.5967 23.203 19.7852 23.2757 19.96C23.3418 20.1096 23.4358 20.2452 23.5525 20.3597C23.2257 21.0882 22.813 21.421 22.4953 21.5788C22.3738 21.6409 22.2453 21.6882 22.1126 21.7197C21.7748 21.7907 21.4441 21.7517 20.7426 21.9296C20.235 22.0569 19.7469 22.2522 19.2916 22.5102C18.7929 22.8125 18.3501 23.1985 17.9826 23.6513C17.9027 23.7512 17.8227 23.8612 17.7428 23.9821C17.7883 23.7566 17.8514 23.5351 17.9316 23.3196V23.3106C18.0999 22.8114 18.3464 22.3423 18.6621 21.9206C19.0193 21.4373 19.4591 21.0209 19.9611 20.6905C19.188 20.8908 18.4616 21.2405 17.8227 21.7197C17.4412 22.0057 17.0974 22.3387 16.7995 22.711C15.6913 24.1 15.5604 25.6718 15.6113 26.6811C15.6313 27.0508 15.6723 27.3406 15.6913 27.5325C15.9421 29.4451 16.9304 30.7541 17.4899 31.3866C17.5519 31.4556 17.6019 31.5165 17.6498 31.5645C17.3714 30.5526 17.2733 29.4997 17.36 28.4538C17.426 27.7001 17.5844 26.9574 17.8317 26.2424C18.0425 27.0648 18.831 29.7029 21.3921 31.4146C22.1071 31.8965 22.8944 32.2611 23.7244 32.4948C23.9822 32.5648 24.224 32.6257 24.4438 32.6667C24.3639 32.5848 24.295 32.5048 24.224 32.4249C22.8329 30.9535 21.7095 29.2505 20.9044 27.3926C21.4399 27.8947 22.0719 28.2826 22.7621 28.5327C23.388 28.751 24.0494 28.8493 24.7116 28.8225C24.0558 28.4097 23.4659 27.9004 22.9619 27.3116ZM17.8597 19.4104L16.7495 18.9508C17.389 18.9115 18.0286 18.8732 18.6681 18.8359L17.8597 19.4104Z" fill="white"/>
<path d="M19.4645 14.9366C19.3346 15.4762 19.2044 16.0165 19.0738 16.5575C18.844 16.5375 18.6142 16.5175 18.3833 16.4875L18.0236 16.4365C18.0136 16.2667 18.0036 16.0768 17.9836 15.9069C18.4823 15.5762 18.9719 15.2564 19.4645 14.9366Z" fill="white"/>
</g>
<defs>
<filter id="filter0_d_887_168" x="0.166667" y="0.666667" width="42.6667" height="42.6667" filterUnits="userSpaceOnUse" color-interpolation-filters="sRGB">
<feFlood flood-opacity="0" result="BackgroundImageFix"/>
<feColorMatrix in="SourceAlpha" type="matrix" values="0 0 0 0 0 0 0 0 0 0 0 0 0 0 0 0 0 0 127 0" result="hardAlpha"/>
<feOffset/>
<feGaussianBlur stdDeviation="2.66667"/>
<feComposite in2="hardAlpha" operator="out"/>
<feColorMatrix type="matrix" values="0 0 0 0 0.138333 0 0 0 0 0.249 0 0 0 0 0.691667 0 0 0 0.5 0"/>
<feBlend mode="normal" in2="BackgroundImageFix" result="effect1_dropShadow_887_168"/>
<feBlend mode="normal" in="SourceGraphic" in2="effect1_dropShadow_887_168" result="shape"/>
</filter>
<linearGradient id="paint0_linear_887_168" x1="47.5" y1="3.33333" x2="5.5" y2="22" gradientUnits="userSpaceOnUse">
<stop stop-color="#17223B"/>
<stop offset="1" stop-color="#1A3861"/>
</linearGradient>
</defs>
</svg>
