<svg width="25" height="24" viewBox="0 0 25 24" fill="none" xmlns="http://www.w3.org/2000/svg">
<path d="M5.948 0C5.42 0.024 4.724 0.072 4.412 0.144C3.932 0.24 3.476 0.384 3.116 0.576C2.66 0.792 2.276 1.08 1.94 1.416C1.58 1.776 1.292 2.16 1.076 2.616C0.884 2.976 0.74 3.432 0.644 3.912C0.572 4.224 0.524 4.92 0.524 5.448C0.5 5.664 0.5 5.952 0.5 6.096V17.904V18.552C0.524 19.08 0.572 19.776 0.644 20.088C0.74 20.568 0.884 21.024 1.076 21.384C1.292 21.84 1.58 22.224 1.916 22.56C2.276 22.92 2.66 23.208 3.116 23.424C3.476 23.616 3.932 23.76 4.412 23.856C4.724 23.928 5.42 23.976 5.948 23.976C6.164 24 6.452 24 6.596 24H18.404H19.052C19.58 23.976 20.276 23.928 20.588 23.856C21.068 23.76 21.524 23.616 21.884 23.424C22.34 23.208 22.724 22.92 23.06 22.584C23.42 22.224 23.708 21.84 23.924 21.384C24.116 21.024 24.26 20.568 24.356 20.088C24.428 19.776 24.476 19.08 24.476 18.552C24.5 18.336 24.5 18.048 24.5 17.904V5.448C24.476 4.92 24.428 4.224 24.356 3.912C24.26 3.432 24.116 2.976 23.924 2.616C23.708 2.16 23.42 1.776 23.084 1.44C22.724 1.08 22.34 0.792 21.884 0.576C21.524 0.384 21.068 0.24 20.588 0.144C20.276 0.072 19.58 0.024 19.052 0.024C18.836 -2.79397e-09 18.548 0 18.404 0H5.948Z" fill="url(#paint0_linear_116_8868)"/>
<path fill-rule="evenodd" clip-rule="evenodd" d="M16.66 13.5809C16.4463 13.474 15.3953 12.957 15.1993 12.8857C15.0034 12.8144 14.861 12.7787 14.7185 12.9926C14.5759 13.2066 14.1663 13.6879 14.0416 13.8305C13.9169 13.9731 13.7922 13.991 13.5785 13.884C13.3647 13.777 12.6759 13.5514 11.8595 12.8233C11.224 12.2568 10.795 11.5569 10.6703 11.343C10.5456 11.129 10.657 11.0134 10.764 10.9068C10.8602 10.8112 10.9778 10.6573 11.0847 10.5325C11.1915 10.4077 11.2272 10.3186 11.2984 10.176C11.3697 10.0334 11.334 9.90855 11.2806 9.80158C11.2272 9.69461 10.7997 8.64283 10.6215 8.21495C10.448 7.79828 10.2718 7.85467 10.1406 7.84811C10.016 7.84192 9.87341 7.84061 9.73091 7.84061C9.58836 7.84061 9.35684 7.89409 9.16086 8.10798C8.96492 8.32192 8.41273 8.83895 8.41273 9.89073C8.41273 10.9425 9.17867 11.9587 9.28555 12.1013C9.39247 12.244 10.7929 14.4024 12.9372 15.328C13.4472 15.5482 13.8454 15.6796 14.1558 15.7781C14.6679 15.9408 15.1339 15.9178 15.5022 15.8628C15.9129 15.8014 16.7669 15.3458 16.9451 14.8467C17.1231 14.3475 17.1231 13.9196 17.0697 13.8305C17.0163 13.7414 16.8738 13.6879 16.66 13.5809ZM12.7597 18.9047H12.7568C11.4809 18.9041 10.2295 18.5615 9.13775 17.9139L8.87811 17.7598L6.18687 18.4655L6.90523 15.8425L6.73611 15.5736C6.02436 14.4418 5.64847 13.1337 5.64898 11.7906C5.65053 7.87131 8.84037 4.68269 12.7625 4.68269C14.6618 4.68344 16.4471 5.42383 17.7896 6.76741C19.1321 8.11098 19.871 9.89697 19.8703 11.7963C19.8687 15.7158 16.6789 18.9047 12.7597 18.9047ZM18.8113 5.74642C17.1962 4.12989 15.0482 3.23922 12.7596 3.23828C8.04425 3.23828 4.20645 7.07458 4.20458 11.79C4.20397 13.2973 4.59786 14.7687 5.3465 16.0656L4.13281 20.4974L8.66797 19.3082C9.91752 19.9895 11.3244 20.3485 12.7562 20.3491H12.7597C17.4747 20.3491 21.3128 16.5123 21.3147 11.7969C21.3156 9.51166 20.4266 7.36295 18.8113 5.74642Z" fill="white"/>
<defs>
<linearGradient id="paint0_linear_116_8868" x1="12.5" y1="24" x2="12.5" y2="4.57764e-05" gradientUnits="userSpaceOnUse">
<stop stop-color="#25CF43"/>
<stop offset="1" stop-color="#61FD7D"/>
</linearGradient>
</defs>
</svg>
