<svg width="300" height="300" viewBox="0 0 300 300" fill="none" xmlns="http://www.w3.org/2000/svg">
<mask id="mask0_885_10638" style="mask-type:alpha" maskUnits="userSpaceOnUse" x="0" y="0" width="300" height="300">
<rect width="300" height="300" fill="url(#paint0_linear_885_10638)"/>
</mask>
<g mask="url(#mask0_885_10638)">
<path opacity="0.3" d="M149.268 300.237C206.668 300.237 253.209 253.315 253.209 195.424C253.209 137.533 206.668 90.6008 149.268 90.6008C91.8688 90.6008 45.3376 137.523 45.3376 195.424C45.3376 253.315 91.8688 300.237 149.268 300.237Z" stroke="url(#paint1_linear_885_10638)" stroke-opacity="0.3" stroke-width="1.5" stroke-miterlimit="10"/>
<path opacity="0.3" d="M289.293 195.414C289.293 118.875 226.73 56.833 149.529 56.833C72.3478 56.833 9.7749 118.875 9.7749 195.414C9.7749 271.953 72.3478 333.995 149.539 333.995C226.72 333.995 289.303 271.953 289.303 195.414H289.293Z" stroke="url(#paint2_linear_885_10638)" stroke-opacity="0.8" stroke-width="1.5" stroke-miterlimit="10"/>
<path opacity="0.3" d="M339.584 195.404C339.584 91.5333 254.663 7.33398 149.91 7.33398C45.157 7.33398 -39.7642 91.5333 -39.7642 195.404C-39.7642 299.274 45.157 383.474 149.91 383.474C254.663 383.474 339.584 299.274 339.584 195.404Z" stroke="url(#paint3_linear_885_10638)" stroke-opacity="0.8" stroke-width="1.5" stroke-miterlimit="10"/>
<g clip-path="url(#clip0_885_10638)">
<path d="M203.5 57.5H96.5C81.3122 57.5 69 69.8122 69 85V364C69 379.188 81.3122 391.5 96.5 391.5H203.5C218.688 391.5 231 379.188 231 364V85C231 69.8122 218.688 57.5 203.5 57.5Z" fill="#010101" stroke="#353230"/>
<path d="M202.5 63.5H97.5C84.7975 63.5 74.5 73.7975 74.5 86.5V361.5C74.5 374.203 84.7975 384.5 97.5 384.5H202.5C215.203 384.5 225.5 374.203 225.5 361.5V86.5C225.5 73.7975 215.203 63.5 202.5 63.5Z" fill="#16181E"/>
<path d="M211.61 99.5H211.39C211.125 99.5 210.87 99.6054 210.683 99.7929C210.495 99.9804 210.39 100.235 210.39 100.5V100.59C210.39 100.765 210.344 100.938 210.256 101.089C210.168 101.241 210.042 101.367 209.89 101.455L209.675 101.58C209.523 101.668 209.351 101.714 209.175 101.714C208.999 101.714 208.827 101.668 208.675 101.58L208.6 101.54C208.371 101.408 208.098 101.372 207.842 101.44C207.586 101.509 207.368 101.676 207.235 101.905L207.125 102.095C206.993 102.325 206.957 102.597 207.025 102.853C207.094 103.109 207.261 103.327 207.49 103.46L207.565 103.51C207.716 103.597 207.842 103.723 207.93 103.873C208.017 104.024 208.064 104.195 208.065 104.37V104.625C208.066 104.801 208.02 104.975 207.932 105.127C207.844 105.28 207.718 105.407 207.565 105.495L207.49 105.54C207.261 105.673 207.094 105.891 207.025 106.147C206.957 106.403 206.993 106.675 207.125 106.905L207.235 107.095C207.368 107.324 207.586 107.491 207.842 107.56C208.098 107.628 208.371 107.592 208.6 107.46L208.675 107.42C208.827 107.332 208.999 107.286 209.175 107.286C209.351 107.286 209.523 107.332 209.675 107.42L209.89 107.545C210.042 107.633 210.168 107.759 210.256 107.911C210.344 108.062 210.39 108.235 210.39 108.41V108.5C210.39 108.765 210.495 109.02 210.683 109.207C210.87 109.395 211.125 109.5 211.39 109.5H211.61C211.875 109.5 212.13 109.395 212.317 109.207C212.505 109.02 212.61 108.765 212.61 108.5V108.41C212.61 108.235 212.656 108.062 212.744 107.911C212.832 107.759 212.958 107.633 213.11 107.545L213.325 107.42C213.477 107.332 213.649 107.286 213.825 107.286C214.001 107.286 214.173 107.332 214.325 107.42L214.4 107.46C214.629 107.592 214.902 107.628 215.158 107.56C215.414 107.491 215.632 107.324 215.765 107.095L215.875 106.9C216.007 106.671 216.043 106.398 215.975 106.142C215.906 105.886 215.739 105.668 215.51 105.535L215.435 105.495C215.282 105.407 215.156 105.28 215.068 105.127C214.98 104.975 214.934 104.801 214.935 104.625V104.375C214.934 104.199 214.98 104.025 215.068 103.873C215.156 103.72 215.282 103.593 215.435 103.505L215.51 103.46C215.739 103.327 215.906 103.109 215.975 102.853C216.043 102.597 216.007 102.325 215.875 102.095L215.765 101.905C215.632 101.676 215.414 101.509 215.158 101.44C214.902 101.372 214.629 101.408 214.4 101.54L214.325 101.58C214.173 101.668 214.001 101.714 213.825 101.714C213.649 101.714 213.477 101.668 213.325 101.58L213.11 101.455C212.958 101.367 212.832 101.241 212.744 101.089C212.656 100.938 212.61 100.765 212.61 100.59V100.5C212.61 100.235 212.505 99.9804 212.317 99.7929C212.13 99.6054 211.875 99.5 211.61 99.5Z" stroke="#A1A1A6" stroke-width="0.75" stroke-linecap="round" stroke-linejoin="round"/>
<path d="M211.5 106C212.328 106 213 105.328 213 104.5C213 103.672 212.328 103 211.5 103C210.672 103 210 103.672 210 104.5C210 105.328 210.672 106 211.5 106Z" stroke="#A1A1A6" stroke-width="0.75" stroke-linecap="round" stroke-linejoin="round"/>
<path d="M90.0234 103.102H88.8047C88.7578 102.841 88.6706 102.612 88.543 102.414C88.4154 102.216 88.2591 102.048 88.0742 101.91C87.8893 101.772 87.6823 101.668 87.4531 101.598C87.2266 101.527 86.9857 101.492 86.7305 101.492C86.2695 101.492 85.8568 101.608 85.4922 101.84C85.1302 102.072 84.8438 102.412 84.6328 102.859C84.4245 103.307 84.3203 103.854 84.3203 104.5C84.3203 105.151 84.4245 105.701 84.6328 106.148C84.8438 106.596 85.1315 106.935 85.4961 107.164C85.8607 107.393 86.2708 107.508 86.7266 107.508C86.9792 107.508 87.2188 107.474 87.4453 107.406C87.6745 107.336 87.8815 107.233 88.0664 107.098C88.2513 106.962 88.4076 106.797 88.5352 106.602C88.6654 106.404 88.7552 106.177 88.8047 105.922L90.0234 105.926C89.9583 106.319 89.832 106.681 89.6445 107.012C89.4596 107.34 89.2214 107.624 88.9297 107.863C88.6406 108.1 88.3099 108.284 87.9375 108.414C87.5651 108.544 87.1589 108.609 86.7188 108.609C86.026 108.609 85.4089 108.445 84.8672 108.117C84.3255 107.787 83.8984 107.314 83.5859 106.699C83.276 106.085 83.1211 105.352 83.1211 104.5C83.1211 103.646 83.2773 102.913 83.5898 102.301C83.9023 101.686 84.3294 101.215 84.8711 100.887C85.4128 100.556 86.0286 100.391 86.7188 100.391C87.1432 100.391 87.5391 100.452 87.9063 100.574C88.276 100.694 88.6081 100.871 88.9023 101.106C89.1966 101.337 89.4401 101.621 89.6328 101.957C89.8255 102.29 89.9557 102.672 90.0234 103.102ZM93.1201 108.633C92.7399 108.633 92.3962 108.563 92.0889 108.422C91.7816 108.279 91.5381 108.072 91.3584 107.801C91.1813 107.53 91.0928 107.198 91.0928 106.805C91.0928 106.466 91.1579 106.188 91.2881 105.969C91.4183 105.75 91.5941 105.577 91.8154 105.449C92.0368 105.322 92.2842 105.225 92.5576 105.16C92.8311 105.095 93.1097 105.046 93.3936 105.012C93.7529 104.97 94.0446 104.936 94.2686 104.91C94.4925 104.882 94.6553 104.836 94.7568 104.773C94.8584 104.711 94.9092 104.609 94.9092 104.469V104.441C94.9092 104.1 94.8128 103.836 94.6201 103.648C94.43 103.461 94.1462 103.367 93.7686 103.367C93.3753 103.367 93.0654 103.454 92.8389 103.629C92.6149 103.801 92.46 103.992 92.374 104.203L91.2764 103.953C91.4066 103.589 91.5967 103.294 91.8467 103.07C92.0993 102.844 92.3896 102.68 92.7178 102.578C93.0459 102.474 93.391 102.422 93.7529 102.422C93.9925 102.422 94.2464 102.451 94.5146 102.508C94.7855 102.563 95.0381 102.664 95.2725 102.813C95.5094 102.961 95.7035 103.173 95.8545 103.449C96.0055 103.723 96.0811 104.078 96.0811 104.516V108.5H94.9404V107.68H94.8936C94.818 107.831 94.7048 107.979 94.5537 108.125C94.4027 108.271 94.2087 108.392 93.9717 108.488C93.7347 108.585 93.4508 108.633 93.1201 108.633ZM93.374 107.695C93.6969 107.695 93.973 107.632 94.2021 107.504C94.4339 107.376 94.6097 107.21 94.7295 107.004C94.8519 106.796 94.9131 106.573 94.9131 106.336V105.563C94.8714 105.604 94.7907 105.643 94.6709 105.68C94.5537 105.714 94.4196 105.744 94.2686 105.77C94.1175 105.793 93.9704 105.815 93.8271 105.836C93.6839 105.854 93.5641 105.87 93.4678 105.883C93.2412 105.912 93.0342 105.96 92.8467 106.027C92.6618 106.095 92.5133 106.193 92.4014 106.32C92.292 106.445 92.2373 106.612 92.2373 106.82C92.2373 107.109 92.3441 107.328 92.5576 107.477C92.7712 107.622 93.0433 107.695 93.374 107.695ZM97.6367 108.5V102.5H98.7656V103.453H98.8281C98.9375 103.13 99.1302 102.876 99.4063 102.691C99.6849 102.504 100 102.41 100.352 102.41C100.424 102.41 100.51 102.413 100.609 102.418C100.711 102.423 100.79 102.43 100.848 102.438V103.555C100.801 103.542 100.717 103.527 100.598 103.512C100.478 103.494 100.358 103.484 100.238 103.484C99.9622 103.484 99.7161 103.543 99.5 103.66C99.2865 103.775 99.1172 103.935 98.9922 104.141C98.8672 104.344 98.8047 104.576 98.8047 104.836V108.5H97.6367ZM103.89 108.617C103.405 108.617 102.973 108.494 102.593 108.246C102.215 107.996 101.918 107.641 101.702 107.18C101.489 106.716 101.382 106.16 101.382 105.512C101.382 104.863 101.49 104.309 101.706 103.848C101.925 103.387 102.224 103.034 102.604 102.789C102.985 102.544 103.416 102.422 103.897 102.422C104.27 102.422 104.569 102.484 104.796 102.609C105.025 102.732 105.202 102.875 105.327 103.039C105.455 103.203 105.554 103.348 105.624 103.473H105.694V100.5H106.862V108.5H105.722V107.566H105.624C105.554 107.694 105.452 107.84 105.319 108.004C105.189 108.168 105.009 108.311 104.78 108.434C104.551 108.556 104.254 108.617 103.89 108.617ZM104.147 107.621C104.483 107.621 104.767 107.533 104.999 107.356C105.233 107.176 105.41 106.927 105.53 106.609C105.653 106.292 105.714 105.922 105.714 105.5C105.714 105.083 105.654 104.719 105.534 104.406C105.414 104.094 105.239 103.85 105.007 103.676C104.775 103.501 104.489 103.414 104.147 103.414C103.796 103.414 103.503 103.505 103.269 103.688C103.034 103.87 102.857 104.119 102.737 104.434C102.62 104.749 102.561 105.104 102.561 105.5C102.561 105.901 102.621 106.262 102.741 106.582C102.861 106.902 103.038 107.156 103.272 107.344C103.509 107.529 103.801 107.621 104.147 107.621ZM113.025 103.965L111.967 104.152C111.922 104.017 111.852 103.888 111.756 103.766C111.662 103.643 111.534 103.543 111.373 103.465C111.212 103.387 111.01 103.348 110.768 103.348C110.437 103.348 110.161 103.422 109.939 103.57C109.718 103.716 109.607 103.905 109.607 104.137C109.607 104.337 109.682 104.499 109.83 104.621C109.978 104.744 110.218 104.844 110.549 104.922L111.502 105.141C112.054 105.268 112.465 105.465 112.736 105.731C113.007 105.996 113.143 106.341 113.143 106.766C113.143 107.125 113.038 107.445 112.83 107.727C112.624 108.005 112.337 108.224 111.967 108.383C111.6 108.542 111.174 108.621 110.689 108.621C110.018 108.621 109.469 108.478 109.045 108.191C108.62 107.902 108.36 107.492 108.264 106.961L109.393 106.789C109.463 107.083 109.607 107.306 109.826 107.457C110.045 107.606 110.33 107.68 110.682 107.68C111.064 107.68 111.37 107.6 111.6 107.441C111.829 107.28 111.943 107.083 111.943 106.852C111.943 106.664 111.873 106.507 111.732 106.379C111.594 106.251 111.382 106.155 111.096 106.09L110.08 105.867C109.52 105.74 109.106 105.537 108.838 105.258C108.572 104.979 108.439 104.626 108.439 104.199C108.439 103.845 108.538 103.535 108.736 103.27C108.934 103.004 109.208 102.797 109.557 102.648C109.906 102.497 110.305 102.422 110.756 102.422C111.404 102.422 111.915 102.563 112.287 102.844C112.659 103.122 112.906 103.496 113.025 103.965Z" fill="#A1A1A6"/>
<path d="M90.3281 225.5C90.3281 226.354 90.1719 227.089 89.8594 227.703C89.5469 228.315 89.1185 228.786 88.5742 229.117C88.0326 229.445 87.4167 229.609 86.7266 229.609C86.0339 229.609 85.4154 229.445 84.8711 229.117C84.3294 228.786 83.9023 228.314 83.5898 227.699C83.2773 227.085 83.1211 226.352 83.1211 225.5C83.1211 224.646 83.2773 223.913 83.5898 223.301C83.9023 222.686 84.3294 222.215 84.8711 221.887C85.4154 221.556 86.0339 221.391 86.7266 221.391C87.4167 221.391 88.0326 221.556 88.5742 221.887C89.1185 222.215 89.5469 222.686 89.8594 223.301C90.1719 223.913 90.3281 224.646 90.3281 225.5ZM89.1328 225.5C89.1328 224.849 89.0273 224.301 88.8164 223.855C88.6081 223.408 88.3216 223.069 87.957 222.84C87.5951 222.608 87.1849 222.492 86.7266 222.492C86.2656 222.492 85.8542 222.608 85.4922 222.84C85.1302 223.069 84.8438 223.408 84.6328 223.855C84.4245 224.301 84.3203 224.849 84.3203 225.5C84.3203 226.151 84.4245 226.701 84.6328 227.148C84.8438 227.594 85.1302 227.932 85.4922 228.164C85.8542 228.393 86.2656 228.508 86.7266 228.508C87.1849 228.508 87.5951 228.393 87.957 228.164C88.3216 227.932 88.6081 227.594 88.8164 227.148C89.0273 226.701 89.1328 226.151 89.1328 225.5ZM96.8721 223.5L94.6963 229.5H93.4463L91.2666 223.5H92.5205L94.04 228.117H94.1025L95.6182 223.5H96.8721ZM100.352 229.621C99.7604 229.621 99.2513 229.495 98.8242 229.242C98.3997 228.987 98.0716 228.629 97.8398 228.168C97.6107 227.704 97.4961 227.161 97.4961 226.539C97.4961 225.924 97.6107 225.383 97.8398 224.914C98.0716 224.445 98.3945 224.079 98.8086 223.816C99.2253 223.553 99.7122 223.422 100.269 223.422C100.608 223.422 100.936 223.478 101.254 223.59C101.572 223.702 101.857 223.878 102.109 224.117C102.362 224.357 102.561 224.668 102.707 225.051C102.853 225.431 102.926 225.893 102.926 226.437V226.852H98.1563V225.977H101.781C101.781 225.669 101.719 225.397 101.594 225.16C101.469 224.921 101.293 224.732 101.066 224.594C100.842 224.456 100.579 224.387 100.277 224.387C99.9492 224.387 99.6628 224.467 99.418 224.629C99.1758 224.788 98.9883 224.996 98.8555 225.254C98.7253 225.509 98.6602 225.786 98.6602 226.086V226.77C98.6602 227.171 98.7305 227.512 98.8711 227.793C99.0143 228.074 99.2135 228.289 99.4688 228.437C99.724 228.583 100.022 228.656 100.363 228.656C100.585 228.656 100.786 228.625 100.969 228.562C101.151 228.497 101.309 228.401 101.441 228.273C101.574 228.146 101.676 227.988 101.746 227.801L102.852 228C102.763 228.326 102.604 228.611 102.375 228.855C102.148 229.098 101.863 229.286 101.519 229.422C101.178 229.555 100.789 229.621 100.352 229.621ZM104.222 229.5V223.5H105.351V224.453H105.413C105.522 224.13 105.715 223.876 105.991 223.691C106.27 223.504 106.585 223.41 106.936 223.41C107.009 223.41 107.095 223.413 107.194 223.418C107.296 223.423 107.375 223.43 107.433 223.437V224.555C107.386 224.542 107.302 224.527 107.183 224.512C107.063 224.493 106.943 224.484 106.823 224.484C106.547 224.484 106.301 224.543 106.085 224.66C105.871 224.775 105.702 224.935 105.577 225.141C105.452 225.344 105.39 225.576 105.39 225.836V229.5H104.222ZM113.759 223.5L111.583 229.5H110.333L108.153 223.5H109.407L110.927 228.117H110.989L112.505 223.5H113.759ZM114.856 229.5V223.5H116.024V229.5H114.856ZM115.446 222.574C115.243 222.574 115.069 222.507 114.923 222.371C114.78 222.233 114.708 222.069 114.708 221.879C114.708 221.686 114.78 221.522 114.923 221.387C115.069 221.249 115.243 221.18 115.446 221.18C115.649 221.18 115.823 221.249 115.966 221.387C116.112 221.522 116.185 221.686 116.185 221.879C116.185 222.069 116.112 222.233 115.966 222.371C115.823 222.507 115.649 222.574 115.446 222.574ZM120.182 229.621C119.59 229.621 119.081 229.495 118.654 229.242C118.23 228.987 117.902 228.629 117.67 228.168C117.441 227.704 117.326 227.161 117.326 226.539C117.326 225.924 117.441 225.383 117.67 224.914C117.902 224.445 118.225 224.079 118.639 223.816C119.055 223.553 119.542 223.422 120.1 223.422C120.438 223.422 120.766 223.478 121.084 223.59C121.402 223.702 121.687 223.878 121.939 224.117C122.192 224.357 122.391 224.668 122.537 225.051C122.683 225.431 122.756 225.893 122.756 226.437V226.852H117.986V225.977H121.611C121.611 225.669 121.549 225.397 121.424 225.16C121.299 224.921 121.123 224.732 120.896 224.594C120.672 224.456 120.409 224.387 120.107 224.387C119.779 224.387 119.493 224.467 119.248 224.629C119.006 224.788 118.818 224.996 118.685 225.254C118.555 225.509 118.49 225.786 118.49 226.086V226.77C118.49 227.171 118.56 227.512 118.701 227.793C118.844 228.074 119.044 228.289 119.299 228.437C119.554 228.583 119.852 228.656 120.193 228.656C120.415 228.656 120.616 228.625 120.799 228.562C120.981 228.497 121.139 228.401 121.271 228.273C121.404 228.146 121.506 227.988 121.576 227.801L122.682 228C122.593 228.326 122.434 228.611 122.205 228.855C121.978 229.098 121.693 229.286 121.35 229.422C121.008 229.555 120.619 229.621 120.182 229.621ZM125.342 229.5L123.576 223.5H124.783L125.959 227.906H126.018L127.197 223.5H128.404L129.576 227.887H129.635L130.803 223.5H132.01L130.248 229.5H129.057L127.838 225.168H127.748L126.529 229.5H125.342Z" fill="#A1A1A6"/>
<mask id="mask1_885_10638" style="mask-type:luminance" maskUnits="userSpaceOnUse" x="82" y="119" width="128" height="80">
<path d="M204.5 119.5H87.5C84.7386 119.5 82.5 121.739 82.5 124.5V193.875C82.5 196.636 84.7386 198.875 87.5 198.875H204.5C207.261 198.875 209.5 196.636 209.5 193.875V124.5C209.5 121.739 207.261 119.5 204.5 119.5Z" fill="white"/>
</mask>
<g mask="url(#mask1_885_10638)">
<path d="M82.5 124.5C82.5 121.739 84.7386 119.5 87.5 119.5H204.5C207.261 119.5 209.5 121.739 209.5 124.5V193.875C209.5 196.636 207.261 198.875 204.5 198.875H87.5C84.7386 198.875 82.5 196.636 82.5 193.875V124.5Z" fill="#0A0A0D"/>
<path d="M97.3422 133.912C98.1013 133.912 98.7168 133.28 98.7168 132.5C98.7168 131.72 98.1013 131.088 97.3422 131.088C96.583 131.088 95.9675 131.72 95.9675 132.5C95.9675 133.28 96.583 133.912 97.3422 133.912Z" fill="url(#paint4_linear_885_10638)"/>
<path d="M101.64 134.973C100.797 136.516 99.1881 137.559 97.3422 137.559C94.6218 137.559 92.4164 135.294 92.4164 132.5C92.4164 129.706 94.6218 127.441 97.3422 127.441C99.2025 127.441 100.822 128.5 101.66 130.063L102.5 129.68C101.517 127.788 99.5761 126.5 97.3422 126.5C94.1156 126.5 91.5 129.186 91.5 132.5C91.5 135.814 94.1156 138.5 97.3422 138.5C99.5617 138.5 101.492 137.229 102.481 135.357L101.64 134.973Z" fill="url(#paint5_linear_885_10638)"/>
<path fill-rule="evenodd" clip-rule="evenodd" d="M101.003 132.5C101.003 134.571 99.3678 136.25 97.3512 136.25C95.3346 136.25 93.7 134.571 93.7 132.5C93.7 130.429 95.3346 128.75 97.3512 128.75C99.3678 128.75 101.003 130.429 101.003 132.5ZM100.168 132.5C100.168 134.098 98.9069 135.393 97.3512 135.393C95.7956 135.393 94.5345 134.098 94.5345 132.5C94.5345 130.902 95.7956 129.607 97.3512 129.607C98.9069 129.607 100.168 130.902 100.168 132.5Z" fill="url(#paint6_linear_885_10638)"/>
<g opacity="0.7">
<path d="M106.38 165.056H93.4257C92.2282 165.056 91.2485 164.082 91.2485 162.891V154.701C91.2485 153.51 92.2282 152.536 93.4257 152.536H106.38C107.577 152.536 108.557 153.51 108.557 154.701V162.891C108.557 164.118 107.613 165.056 106.38 165.056Z" fill="#D5D5D7" stroke="#808285" stroke-width="0.5" stroke-miterlimit="10"/>
<path d="M101.409 160.293H98.2517C97.9614 160.293 97.78 160.113 97.78 159.824V157.768C97.78 157.479 97.9614 157.299 98.2517 157.299H101.409C101.699 157.299 101.88 157.479 101.88 157.768V159.824C101.844 160.077 101.663 160.293 101.409 160.293Z" fill="#D5D5D7" stroke="#808285" stroke-width="0.5" stroke-miterlimit="10"/>
<path d="M91.2485 158.237H97.78M91.2485 159.319H97.78M101.917 158.237H108.484M101.917 159.319H108.484M99.8482 157.299V152.5M99.8482 165.092V160.329M99.9208 155.098H108.484M91.2485 162.458H99.9208" stroke="#808285" stroke-width="0.5" stroke-miterlimit="10"/>
</g>
<path d="M189.163 128.988L186.445 135.411H184.669L183.323 130.273C183.243 129.951 183.162 129.845 182.92 129.711C182.516 129.497 181.843 129.282 181.278 129.175L181.305 128.988H184.158C184.507 128.988 184.857 129.229 184.938 129.63L185.638 133.35L187.387 128.988H189.163ZM196.08 133.323C196.08 131.637 193.712 131.53 193.739 130.781C193.739 130.54 193.954 130.299 194.438 130.246C194.681 130.219 195.327 130.192 196.08 130.54L196.376 129.175C195.972 129.042 195.461 128.881 194.815 128.881C193.173 128.881 191.989 129.764 191.989 130.995C191.989 131.932 192.824 132.44 193.443 132.735C194.089 133.056 194.304 133.243 194.304 133.537C194.304 133.966 193.793 134.153 193.308 134.153C192.474 134.18 191.989 133.939 191.586 133.752L191.29 135.17C191.693 135.357 192.393 135.491 193.147 135.518C194.923 135.518 196.08 134.661 196.08 133.323ZM200.44 135.411H201.974L200.628 128.988H199.202C198.879 128.988 198.61 129.176 198.502 129.47L195.999 135.437H197.749L198.099 134.474H200.252L200.44 135.411ZM198.583 133.136L199.471 130.728L199.983 133.136H198.583ZM191.559 128.988L190.186 135.411H188.517L189.89 128.988H191.559Z" fill="url(#paint7_linear_885_10638)"/>
<g opacity="0.6">
<path d="M200.637 163.39C200.565 163.39 200.492 163.39 200.456 163.354C200.274 163.246 200.202 162.993 200.311 162.813C201 161.622 201.363 160.288 201.363 158.953C201.363 157.618 201 156.247 200.311 155.092C200.202 154.912 200.274 154.659 200.456 154.551C200.637 154.443 200.891 154.515 201 154.695C201.762 155.994 202.161 157.473 202.161 158.953C202.161 160.432 201.762 161.911 201 163.21C200.928 163.318 200.782 163.39 200.637 163.39Z" fill="#76777A"/>
<path d="M199.041 162.488C198.968 162.488 198.895 162.488 198.859 162.452C198.678 162.344 198.605 162.091 198.714 161.911C199.258 161.009 199.512 159.963 199.512 158.953C199.512 157.906 199.222 156.896 198.714 155.994C198.605 155.814 198.678 155.561 198.859 155.453C199.041 155.345 199.295 155.417 199.403 155.597C200.02 156.607 200.311 157.798 200.311 158.953C200.311 160.143 199.984 161.298 199.403 162.308C199.295 162.416 199.186 162.488 199.041 162.488ZM197.408 161.586C197.335 161.586 197.263 161.586 197.226 161.55C197.045 161.442 196.972 161.189 197.081 161.009C197.444 160.36 197.662 159.674 197.662 158.916C197.662 158.195 197.48 157.473 197.081 156.824C196.972 156.643 197.045 156.391 197.226 156.283C197.408 156.174 197.662 156.247 197.771 156.427C198.206 157.185 198.46 158.051 198.46 158.916C198.46 159.782 198.206 160.648 197.771 161.406C197.698 161.514 197.553 161.586 197.408 161.586ZM195.811 160.684C195.739 160.684 195.666 160.648 195.593 160.612C195.412 160.504 195.34 160.251 195.448 160.071C195.666 159.71 195.775 159.313 195.775 158.88C195.775 158.484 195.666 158.051 195.448 157.69C195.34 157.509 195.376 157.257 195.593 157.149C195.775 157.04 196.029 157.076 196.138 157.293C196.428 157.762 196.609 158.339 196.609 158.88C196.609 159.422 196.464 159.999 196.138 160.468C196.065 160.648 195.956 160.684 195.811 160.684Z" fill="#76777A"/>
</g>
<path d="M111.98 188.58C111.74 188.578 111.505 188.529 111.276 188.435C111.046 188.338 110.84 188.184 110.656 187.972C110.473 187.758 110.327 187.475 110.219 187.125C110.111 186.775 110.057 186.344 110.057 185.832C110.057 185.359 110.099 184.925 110.182 184.531C110.265 184.137 110.39 183.796 110.557 183.509C110.724 183.221 110.932 182.998 111.182 182.841C111.432 182.682 111.724 182.602 112.06 182.602C112.374 182.602 112.652 182.668 112.892 182.798C113.133 182.927 113.328 183.107 113.477 183.338C113.627 183.569 113.721 183.835 113.759 184.136H113.236C113.183 183.83 113.057 183.577 112.858 183.378C112.659 183.179 112.393 183.08 112.06 183.08C111.582 183.08 111.213 183.301 110.952 183.744C110.69 184.186 110.559 184.812 110.557 185.625H110.594C110.687 185.453 110.806 185.304 110.952 185.179C111.099 185.052 111.267 184.954 111.455 184.884C111.642 184.812 111.839 184.776 112.046 184.776C112.369 184.776 112.666 184.858 112.935 185.023C113.204 185.186 113.419 185.41 113.58 185.696C113.741 185.98 113.821 186.305 113.821 186.67C113.821 187.017 113.744 187.336 113.591 187.628C113.439 187.92 113.225 188.152 112.949 188.324C112.674 188.496 112.351 188.581 111.98 188.58ZM111.98 188.102C112.234 188.102 112.46 188.038 112.659 187.909C112.86 187.78 113.018 187.608 113.134 187.392C113.249 187.174 113.307 186.934 113.307 186.67C113.307 186.407 113.249 186.169 113.134 185.955C113.018 185.741 112.86 185.57 112.659 185.443C112.46 185.316 112.234 185.253 111.98 185.253C111.787 185.253 111.607 185.293 111.44 185.372C111.274 185.45 111.129 185.557 111.006 185.693C110.885 185.828 110.792 185.982 110.727 186.156C110.665 186.33 110.641 186.513 110.656 186.705C110.677 186.972 110.746 187.211 110.864 187.423C110.983 187.634 111.138 187.799 111.33 187.92C111.523 188.042 111.74 188.102 111.98 188.102ZM115.19 188.5L117.841 183.196V183.159H114.787V182.682H118.398V183.182L115.75 188.5H115.19ZM121.202 182.602C121.445 182.604 121.68 182.653 121.907 182.75C122.136 182.845 122.343 182.998 122.526 183.21C122.71 183.42 122.856 183.701 122.964 184.051C123.072 184.4 123.126 184.829 123.126 185.338C123.126 185.813 123.084 186.249 123.001 186.645C122.917 187.041 122.792 187.384 122.626 187.673C122.461 187.961 122.253 188.185 122.001 188.344C121.751 188.501 121.458 188.58 121.123 188.58C120.81 188.58 120.533 188.514 120.291 188.384C120.05 188.253 119.855 188.072 119.705 187.841C119.556 187.608 119.463 187.339 119.427 187.034H119.95C120.001 187.345 120.126 187.6 120.325 187.801C120.525 188.002 120.791 188.102 121.123 188.102C121.598 188.102 121.968 187.881 122.231 187.438C122.494 186.994 122.626 186.364 122.626 185.545H122.589C122.498 185.716 122.379 185.865 122.231 185.991C122.085 186.118 121.918 186.218 121.731 186.29C121.543 186.36 121.345 186.395 121.137 186.395C120.813 186.395 120.517 186.313 120.248 186.151C119.979 185.986 119.764 185.761 119.603 185.477C119.442 185.191 119.362 184.866 119.362 184.5C119.362 184.155 119.437 183.839 119.589 183.551C119.742 183.261 119.956 183.03 120.231 182.858C120.507 182.684 120.831 182.598 121.202 182.602ZM121.202 183.08C120.951 183.08 120.724 183.144 120.523 183.273C120.325 183.4 120.166 183.571 120.049 183.787C119.934 184.001 119.876 184.239 119.876 184.5C119.876 184.763 119.934 185.003 120.049 185.219C120.166 185.433 120.325 185.603 120.523 185.73C120.724 185.855 120.951 185.918 121.202 185.918C121.396 185.918 121.576 185.879 121.742 185.801C121.909 185.722 122.053 185.614 122.174 185.477C122.297 185.341 122.39 185.187 122.452 185.014C122.517 184.84 122.542 184.657 122.529 184.466C122.506 184.201 122.435 183.964 122.316 183.756C122.199 183.545 122.043 183.381 121.85 183.261C121.659 183.14 121.443 183.08 121.202 183.08ZM126.217 188.58C125.859 188.58 125.539 188.515 125.256 188.386C124.974 188.256 124.751 188.075 124.586 187.844C124.421 187.613 124.334 187.347 124.325 187.045H124.862C124.871 187.258 124.936 187.443 125.058 187.602C125.179 187.759 125.34 187.883 125.541 187.972C125.741 188.059 125.965 188.102 126.211 188.102C126.48 188.102 126.717 188.052 126.921 187.952C127.128 187.851 127.289 187.714 127.404 187.54C127.522 187.364 127.58 187.165 127.58 186.943C127.58 186.708 127.521 186.501 127.401 186.321C127.282 186.141 127.111 186.001 126.887 185.901C126.666 185.8 126.4 185.75 126.092 185.75H125.751V185.273H126.092C126.344 185.273 126.566 185.227 126.759 185.136C126.954 185.044 127.108 184.914 127.22 184.747C127.331 184.58 127.387 184.384 127.387 184.159C127.387 183.945 127.339 183.757 127.242 183.594C127.146 183.431 127.009 183.303 126.833 183.21C126.659 183.117 126.455 183.071 126.222 183.071C125.997 183.071 125.791 183.115 125.603 183.202C125.416 183.289 125.264 183.412 125.148 183.571C125.035 183.73 124.974 183.919 124.967 184.136H124.452C124.46 183.833 124.543 183.567 124.702 183.338C124.863 183.107 125.077 182.927 125.342 182.798C125.609 182.668 125.904 182.602 126.228 182.602C126.571 182.602 126.867 182.672 127.117 182.812C127.367 182.953 127.56 183.139 127.697 183.372C127.835 183.603 127.904 183.858 127.904 184.136C127.904 184.468 127.814 184.752 127.634 184.989C127.454 185.223 127.212 185.386 126.907 185.477V185.514C127.278 185.588 127.57 185.753 127.782 186.009C127.996 186.262 128.103 186.574 128.103 186.943C128.103 187.254 128.022 187.533 127.859 187.781C127.696 188.027 127.472 188.223 127.188 188.366C126.906 188.509 126.582 188.58 126.217 188.58Z" fill="#A1A1A6"/>
<path d="M92.5 186.5C93.0523 186.5 93.5 186.052 93.5 185.5C93.5 184.948 93.0523 184.5 92.5 184.5C91.9477 184.5 91.5 184.948 91.5 185.5C91.5 186.052 91.9477 186.5 92.5 186.5Z" fill="#A1A1A6"/>
<path d="M96.5 186.5C97.0523 186.5 97.5 186.052 97.5 185.5C97.5 184.948 97.0523 184.5 96.5 184.5C95.9477 184.5 95.5 184.948 95.5 185.5C95.5 186.052 95.9477 186.5 96.5 186.5Z" fill="#A1A1A6"/>
<path d="M100.5 186.5C101.052 186.5 101.5 186.052 101.5 185.5C101.5 184.948 101.052 184.5 100.5 184.5C99.9477 184.5 99.5 184.948 99.5 185.5C99.5 186.052 99.9477 186.5 100.5 186.5Z" fill="#A1A1A6"/>
<path d="M104.5 186.5C105.052 186.5 105.5 186.052 105.5 185.5C105.5 184.948 105.052 184.5 104.5 184.5C103.948 184.5 103.5 184.948 103.5 185.5C103.5 186.052 103.948 186.5 104.5 186.5Z" fill="#A1A1A6"/>
</g>
<path d="M216.5 221.5H168.5C167.948 221.5 167.5 221.948 167.5 222.5V228.5C167.5 229.052 167.948 229.5 168.5 229.5H216.5C217.052 229.5 217.5 229.052 217.5 228.5V222.5C217.5 221.948 217.052 221.5 216.5 221.5Z" fill="white" fill-opacity="0.04"/>
<path d="M215.5 240.5H84.5C83.3954 240.5 82.5 241.395 82.5 242.5V318.5C82.5 319.605 83.3954 320.5 84.5 320.5H215.5C216.605 320.5 217.5 319.605 217.5 318.5V242.5C217.5 241.395 216.605 240.5 215.5 240.5Z" fill="white" fill-opacity="0.04"/>
<path d="M108.114 256.591C108.114 257.205 108.003 257.735 107.781 258.182C107.56 258.629 107.256 258.973 106.869 259.216C106.483 259.458 106.042 259.58 105.545 259.58C105.049 259.58 104.608 259.458 104.222 259.216C103.835 258.973 103.531 258.629 103.31 258.182C103.088 257.735 102.977 257.205 102.977 256.591C102.977 255.977 103.088 255.447 103.31 255C103.531 254.553 103.835 254.208 104.222 253.966C104.608 253.723 105.049 253.602 105.545 253.602C106.042 253.602 106.483 253.723 106.869 253.966C107.256 254.208 107.56 254.553 107.781 255C108.003 255.447 108.114 255.977 108.114 256.591ZM107.432 256.591C107.432 256.087 107.347 255.662 107.179 255.315C107.012 254.969 106.786 254.706 106.5 254.528C106.216 254.35 105.898 254.261 105.545 254.261C105.193 254.261 104.874 254.35 104.588 254.528C104.304 254.706 104.078 254.969 103.909 255.315C103.742 255.662 103.659 256.087 103.659 256.591C103.659 257.095 103.742 257.52 103.909 257.866C104.078 258.213 104.304 258.475 104.588 258.653C104.874 258.831 105.193 258.92 105.545 258.92C105.898 258.92 106.216 258.831 106.5 258.653C106.786 258.475 107.012 258.213 107.179 257.866C107.347 257.52 107.432 257.095 107.432 256.591ZM111.151 255.136V255.705H108.798V255.136H111.151ZM109.503 259.5V254.534C109.503 254.284 109.562 254.076 109.679 253.909C109.796 253.742 109.949 253.617 110.136 253.534C110.324 253.451 110.522 253.409 110.73 253.409C110.895 253.409 111.029 253.422 111.133 253.449C111.238 253.475 111.315 253.5 111.366 253.523L111.173 254.102C111.139 254.091 111.092 254.077 111.031 254.06C110.972 254.043 110.895 254.034 110.798 254.034C110.577 254.034 110.417 254.09 110.318 254.202C110.222 254.313 110.173 254.477 110.173 254.693V259.5H109.503ZM114.033 255.136V255.705H111.681V255.136H114.033ZM112.386 259.5V254.534C112.386 254.284 112.444 254.076 112.562 253.909C112.679 253.742 112.832 253.617 113.019 253.534C113.207 253.451 113.405 253.409 113.613 253.409C113.778 253.409 113.912 253.422 114.016 253.449C114.12 253.475 114.198 253.5 114.249 253.523L114.056 254.102C114.022 254.091 113.975 254.077 113.914 254.06C113.855 254.043 113.778 254.034 113.681 254.034C113.459 254.034 113.299 254.09 113.201 254.202C113.104 254.313 113.056 254.477 113.056 254.693V259.5H112.386ZM114.973 259.5V255.136H115.643V259.5H114.973ZM115.314 254.409C115.183 254.409 115.07 254.365 114.976 254.276C114.883 254.187 114.837 254.08 114.837 253.955C114.837 253.83 114.883 253.723 114.976 253.634C115.07 253.545 115.183 253.5 115.314 253.5C115.445 253.5 115.556 253.545 115.649 253.634C115.744 253.723 115.791 253.83 115.791 253.955C115.791 254.08 115.744 254.187 115.649 254.276C115.556 254.365 115.445 254.409 115.314 254.409ZM118.644 259.591C118.235 259.591 117.883 259.494 117.587 259.301C117.292 259.108 117.065 258.842 116.905 258.503C116.746 258.164 116.667 257.777 116.667 257.341C116.667 256.898 116.748 256.507 116.911 256.168C117.076 255.827 117.305 255.561 117.599 255.369C117.894 255.176 118.239 255.08 118.633 255.08C118.94 255.08 119.216 255.136 119.462 255.25C119.709 255.364 119.91 255.523 120.067 255.727C120.225 255.932 120.322 256.17 120.36 256.443H119.69C119.638 256.244 119.525 256.068 119.349 255.915C119.174 255.759 118.94 255.682 118.644 255.682C118.383 255.682 118.154 255.75 117.957 255.886C117.762 256.021 117.609 256.211 117.499 256.457C117.391 256.702 117.337 256.989 117.337 257.318C117.337 257.655 117.39 257.949 117.496 258.199C117.604 258.449 117.756 258.643 117.951 258.781C118.148 258.92 118.379 258.989 118.644 258.989C118.818 258.989 118.977 258.958 119.119 258.898C119.261 258.837 119.381 258.75 119.479 258.636C119.578 258.523 119.648 258.386 119.69 258.227H120.36C120.322 258.485 120.228 258.717 120.079 258.923C119.931 259.128 119.735 259.291 119.491 259.412C119.248 259.531 118.966 259.591 118.644 259.591ZM123.17 259.591C122.749 259.591 122.387 259.498 122.082 259.312C121.779 259.125 121.545 258.864 121.38 258.528C121.217 258.191 121.136 257.799 121.136 257.352C121.136 256.905 121.217 256.511 121.38 256.17C121.545 255.828 121.774 255.561 122.067 255.369C122.363 255.176 122.708 255.08 123.102 255.08C123.329 255.08 123.553 255.117 123.775 255.193C123.996 255.269 124.198 255.392 124.38 255.562C124.562 255.731 124.707 255.955 124.815 256.233C124.923 256.511 124.977 256.854 124.977 257.261V257.545H121.613V256.966H124.295C124.295 256.72 124.245 256.5 124.147 256.307C124.05 256.114 123.912 255.961 123.732 255.849C123.554 255.738 123.344 255.682 123.102 255.682C122.834 255.682 122.603 255.748 122.408 255.881C122.215 256.011 122.066 256.182 121.962 256.392C121.858 256.602 121.806 256.828 121.806 257.068V257.455C121.806 257.784 121.863 258.063 121.977 258.293C122.092 258.52 122.252 258.693 122.457 258.812C122.661 258.93 122.899 258.989 123.17 258.989C123.346 258.989 123.505 258.964 123.647 258.915C123.791 258.864 123.915 258.788 124.019 258.688C124.123 258.585 124.204 258.458 124.261 258.307L124.908 258.489C124.84 258.708 124.726 258.902 124.565 259.068C124.404 259.233 124.205 259.362 123.968 259.455C123.731 259.545 123.465 259.591 123.17 259.591ZM131.337 256.114L130.735 256.284C130.697 256.184 130.641 256.086 130.567 255.991C130.495 255.895 130.397 255.815 130.272 255.753C130.147 255.69 129.987 255.659 129.792 255.659C129.525 255.659 129.302 255.721 129.124 255.844C128.948 255.965 128.86 256.119 128.86 256.307C128.86 256.473 128.921 256.605 129.042 256.702C129.163 256.798 129.352 256.879 129.61 256.943L130.258 257.102C130.648 257.197 130.939 257.342 131.13 257.537C131.321 257.73 131.417 257.979 131.417 258.284C131.417 258.534 131.345 258.758 131.201 258.955C131.059 259.152 130.86 259.307 130.604 259.42C130.349 259.534 130.051 259.591 129.712 259.591C129.267 259.591 128.899 259.494 128.607 259.301C128.316 259.108 128.131 258.826 128.053 258.455L128.69 258.295C128.75 258.53 128.865 258.706 129.033 258.824C129.204 258.941 129.426 259 129.701 259C130.013 259 130.262 258.934 130.445 258.801C130.631 258.667 130.724 258.506 130.724 258.318C130.724 258.167 130.671 258.04 130.565 257.938C130.459 257.833 130.296 257.756 130.076 257.705L129.349 257.534C128.949 257.439 128.655 257.293 128.468 257.094C128.282 256.893 128.19 256.642 128.19 256.341C128.19 256.095 128.259 255.877 128.397 255.688C128.537 255.498 128.727 255.349 128.968 255.241C129.21 255.134 129.485 255.08 129.792 255.08C130.224 255.08 130.563 255.174 130.809 255.364C131.057 255.553 131.233 255.803 131.337 256.114ZM135.176 257.716V255.136H135.847V259.5H135.176V258.761H135.131C135.028 258.983 134.869 259.171 134.653 259.327C134.437 259.48 134.165 259.557 133.835 259.557C133.562 259.557 133.32 259.497 133.108 259.378C132.896 259.257 132.729 259.075 132.608 258.832C132.487 258.588 132.426 258.28 132.426 257.909V255.136H133.097V257.864C133.097 258.182 133.186 258.436 133.364 258.625C133.544 258.814 133.773 258.909 134.051 258.909C134.218 258.909 134.387 258.866 134.56 258.781C134.734 258.696 134.88 258.565 134.997 258.389C135.116 258.213 135.176 257.989 135.176 257.716ZM137.075 261.136V255.136H137.722V255.83H137.802C137.851 255.754 137.919 255.657 138.006 255.54C138.095 255.42 138.222 255.314 138.387 255.222C138.554 255.127 138.779 255.08 139.063 255.08C139.431 255.08 139.754 255.171 140.035 255.355C140.315 255.539 140.534 255.799 140.691 256.136C140.848 256.473 140.927 256.871 140.927 257.33C140.927 257.792 140.848 258.192 140.691 258.531C140.534 258.868 140.316 259.13 140.038 259.315C139.759 259.499 139.438 259.591 139.075 259.591C138.794 259.591 138.57 259.545 138.401 259.452C138.233 259.357 138.103 259.25 138.012 259.131C137.921 259.009 137.851 258.909 137.802 258.83H137.745V261.136H137.075ZM137.734 257.318C137.734 257.648 137.782 257.938 137.879 258.19C137.975 258.44 138.116 258.636 138.302 258.778C138.487 258.919 138.715 258.989 138.984 258.989C139.264 258.989 139.498 258.915 139.685 258.767C139.875 258.617 140.017 258.417 140.111 258.165C140.208 257.911 140.256 257.629 140.256 257.318C140.256 257.011 140.209 256.735 140.114 256.489C140.021 256.241 139.88 256.045 139.691 255.901C139.504 255.755 139.268 255.682 138.984 255.682C138.711 255.682 138.482 255.751 138.296 255.889C138.111 256.026 137.97 256.217 137.876 256.463C137.781 256.707 137.734 256.992 137.734 257.318ZM141.95 261.136V255.136H142.597V255.83H142.677C142.726 255.754 142.794 255.657 142.881 255.54C142.97 255.42 143.097 255.314 143.262 255.222C143.429 255.127 143.654 255.08 143.938 255.08C144.306 255.08 144.629 255.171 144.91 255.355C145.19 255.539 145.409 255.799 145.566 256.136C145.723 256.473 145.802 256.871 145.802 257.33C145.802 257.792 145.723 258.192 145.566 258.531C145.409 258.868 145.191 259.13 144.913 259.315C144.634 259.499 144.313 259.591 143.95 259.591C143.669 259.591 143.445 259.545 143.276 259.452C143.108 259.357 142.978 259.25 142.887 259.131C142.796 259.009 142.726 258.909 142.677 258.83H142.62V261.136H141.95ZM142.609 257.318C142.609 257.648 142.657 257.938 142.754 258.19C142.85 258.44 142.991 258.636 143.177 258.778C143.362 258.919 143.59 258.989 143.859 258.989C144.139 258.989 144.373 258.915 144.56 258.767C144.75 258.617 144.892 258.417 144.986 258.165C145.083 257.911 145.131 257.629 145.131 257.318C145.131 257.011 145.084 256.735 144.989 256.489C144.896 256.241 144.755 256.045 144.566 255.901C144.379 255.755 144.143 255.682 143.859 255.682C143.586 255.682 143.357 255.751 143.171 255.889C142.986 256.026 142.845 256.217 142.751 256.463C142.656 256.707 142.609 256.992 142.609 257.318ZM147.495 253.682V259.5H146.825V253.682H147.495ZM148.723 259.5V255.136H149.393V259.5H148.723ZM149.064 254.409C148.933 254.409 148.82 254.365 148.726 254.276C148.633 254.187 148.587 254.08 148.587 253.955C148.587 253.83 148.633 253.723 148.726 253.634C148.82 253.545 148.933 253.5 149.064 253.5C149.195 253.5 149.306 253.545 149.399 253.634C149.494 253.723 149.541 253.83 149.541 253.955C149.541 254.08 149.494 254.187 149.399 254.276C149.306 254.365 149.195 254.409 149.064 254.409ZM152.451 259.591C152.03 259.591 151.668 259.498 151.363 259.312C151.06 259.125 150.826 258.864 150.661 258.528C150.498 258.191 150.417 257.799 150.417 257.352C150.417 256.905 150.498 256.511 150.661 256.17C150.826 255.828 151.055 255.561 151.349 255.369C151.644 255.176 151.989 255.08 152.383 255.08C152.61 255.08 152.834 255.117 153.056 255.193C153.278 255.269 153.479 255.392 153.661 255.562C153.843 255.731 153.988 255.955 154.096 256.233C154.204 256.511 154.258 256.854 154.258 257.261V257.545H150.894V256.966H153.576C153.576 256.72 153.527 256.5 153.428 256.307C153.332 256.114 153.193 255.961 153.013 255.849C152.835 255.738 152.625 255.682 152.383 255.682C152.116 255.682 151.885 255.748 151.69 255.881C151.496 256.011 151.348 256.182 151.244 256.392C151.139 256.602 151.087 256.828 151.087 257.068V257.455C151.087 257.784 151.144 258.063 151.258 258.293C151.373 258.52 151.533 258.693 151.738 258.812C151.942 258.93 152.18 258.989 152.451 258.989C152.627 258.989 152.786 258.964 152.928 258.915C153.072 258.864 153.196 258.788 153.3 258.688C153.405 258.585 153.485 258.458 153.542 258.307L154.19 258.489C154.121 258.708 154.007 258.902 153.846 259.068C153.685 259.233 153.486 259.362 153.249 259.455C153.012 259.545 152.746 259.591 152.451 259.591ZM158.369 256.114L157.766 256.284C157.728 256.184 157.673 256.086 157.599 255.991C157.527 255.895 157.428 255.815 157.303 255.753C157.178 255.69 157.018 255.659 156.823 255.659C156.556 255.659 156.334 255.721 156.155 255.844C155.979 255.965 155.891 256.119 155.891 256.307C155.891 256.473 155.952 256.605 156.073 256.702C156.194 256.798 156.384 256.879 156.641 256.943L157.289 257.102C157.679 257.197 157.97 257.342 158.161 257.537C158.352 257.73 158.448 257.979 158.448 258.284C158.448 258.534 158.376 258.758 158.232 258.955C158.09 259.152 157.891 259.307 157.636 259.42C157.38 259.534 157.083 259.591 156.744 259.591C156.298 259.591 155.93 259.494 155.638 259.301C155.347 259.108 155.162 258.826 155.084 258.455L155.721 258.295C155.781 258.53 155.896 258.706 156.065 258.824C156.235 258.941 156.458 259 156.732 259C157.045 259 157.293 258.934 157.477 258.801C157.662 258.667 157.755 258.506 157.755 258.318C157.755 258.167 157.702 258.04 157.596 257.938C157.49 257.833 157.327 257.756 157.107 257.705L156.38 257.534C155.98 257.439 155.687 257.293 155.499 257.094C155.314 256.893 155.221 256.642 155.221 256.341C155.221 256.095 155.29 255.877 155.428 255.688C155.568 255.498 155.759 255.349 155.999 255.241C156.242 255.134 156.516 255.08 156.823 255.08C157.255 255.08 157.594 255.174 157.84 255.364C158.088 255.553 158.264 255.803 158.369 256.114Z" fill="#A1A1A6"/>
<path d="M190.115 260.227V252.955H190.581V260.227H190.115ZM191.683 255.136C191.649 254.848 191.511 254.625 191.268 254.466C191.026 254.307 190.729 254.227 190.376 254.227C190.119 254.227 189.893 254.269 189.7 254.352C189.509 254.436 189.359 254.55 189.251 254.696C189.145 254.842 189.092 255.008 189.092 255.193C189.092 255.348 189.129 255.482 189.203 255.594C189.279 255.704 189.375 255.795 189.493 255.869C189.61 255.941 189.733 256.001 189.862 256.048C189.991 256.094 190.109 256.131 190.217 256.159L190.808 256.318C190.96 256.358 191.128 256.413 191.314 256.483C191.501 256.553 191.68 256.649 191.851 256.77C192.023 256.889 192.165 257.043 192.277 257.23C192.389 257.418 192.445 257.648 192.445 257.92C192.445 258.235 192.362 258.519 192.197 258.773C192.035 259.027 191.796 259.228 191.482 259.378C191.169 259.527 190.789 259.602 190.342 259.602C189.926 259.602 189.565 259.535 189.26 259.401C188.957 259.266 188.718 259.079 188.544 258.838C188.372 258.598 188.274 258.318 188.251 258H188.979C188.998 258.22 189.071 258.402 189.2 258.545C189.331 258.687 189.496 258.794 189.695 258.864C189.895 258.932 190.111 258.966 190.342 258.966C190.611 258.966 190.853 258.922 191.067 258.835C191.281 258.746 191.45 258.623 191.575 258.466C191.7 258.307 191.763 258.121 191.763 257.909C191.763 257.716 191.709 257.559 191.601 257.438C191.493 257.316 191.351 257.218 191.175 257.142C190.999 257.066 190.808 257 190.604 256.943L189.888 256.739C189.433 256.608 189.073 256.421 188.808 256.179C188.543 255.937 188.411 255.619 188.411 255.227C188.411 254.902 188.499 254.617 188.675 254.375C188.853 254.131 189.091 253.941 189.391 253.807C189.692 253.67 190.028 253.602 190.399 253.602C190.774 253.602 191.107 253.67 191.399 253.804C191.691 253.937 191.922 254.118 192.092 254.349C192.265 254.58 192.356 254.843 192.365 255.136H191.683ZM195.546 253.682V259.5H194.842V254.42H194.808L193.387 255.364V254.648L194.842 253.682H195.546ZM199.083 259.58C198.693 259.58 198.348 259.51 198.049 259.372C197.752 259.232 197.52 259.04 197.353 258.795C197.186 258.549 197.104 258.269 197.106 257.955C197.104 257.708 197.152 257.481 197.251 257.273C197.349 257.062 197.484 256.887 197.654 256.747C197.826 256.605 198.019 256.515 198.231 256.477V256.443C197.952 256.371 197.731 256.215 197.566 255.974C197.401 255.732 197.32 255.456 197.322 255.148C197.32 254.852 197.395 254.588 197.546 254.355C197.698 254.122 197.906 253.938 198.171 253.804C198.438 253.67 198.742 253.602 199.083 253.602C199.42 253.602 199.721 253.67 199.987 253.804C200.252 253.938 200.46 254.122 200.612 254.355C200.765 254.588 200.843 254.852 200.844 255.148C200.843 255.456 200.758 255.732 200.592 255.974C200.427 256.215 200.208 256.371 199.935 256.443V256.477C200.146 256.515 200.335 256.605 200.504 256.747C200.672 256.887 200.807 257.062 200.907 257.273C201.007 257.481 201.058 257.708 201.06 257.955C201.058 258.269 200.973 258.549 200.805 258.795C200.638 259.04 200.406 259.232 200.109 259.372C199.813 259.51 199.471 259.58 199.083 259.58ZM199.083 258.955C199.346 258.955 199.574 258.912 199.765 258.827C199.956 258.741 200.104 258.621 200.208 258.466C200.312 258.311 200.365 258.129 200.367 257.92C200.365 257.701 200.308 257.507 200.197 257.338C200.085 257.17 199.933 257.037 199.739 256.94C199.548 256.844 199.329 256.795 199.083 256.795C198.835 256.795 198.613 256.844 198.418 256.94C198.225 257.037 198.073 257.17 197.961 257.338C197.851 257.507 197.797 257.701 197.799 257.92C197.797 258.129 197.847 258.311 197.95 258.466C198.054 258.621 198.202 258.741 198.396 258.827C198.589 258.912 198.818 258.955 199.083 258.955ZM199.083 256.193C199.291 256.193 199.476 256.152 199.637 256.068C199.8 255.985 199.928 255.868 200.021 255.719C200.113 255.569 200.161 255.394 200.163 255.193C200.161 254.996 200.114 254.825 200.023 254.679C199.933 254.531 199.807 254.418 199.646 254.338C199.485 254.257 199.297 254.216 199.083 254.216C198.865 254.216 198.675 254.257 198.512 254.338C198.349 254.418 198.223 254.531 198.134 254.679C198.045 254.825 198.002 254.996 198.004 255.193C198.002 255.394 198.046 255.569 198.137 255.719C198.23 255.868 198.358 255.985 198.521 256.068C198.683 256.152 198.871 256.193 199.083 256.193ZM202.469 259.545C202.329 259.545 202.209 259.495 202.109 259.395C202.008 259.295 201.958 259.174 201.958 259.034C201.958 258.894 202.008 258.774 202.109 258.673C202.209 258.573 202.329 258.523 202.469 258.523C202.61 258.523 202.73 258.573 202.83 258.673C202.931 258.774 202.981 258.894 202.981 259.034C202.981 259.127 202.957 259.212 202.91 259.29C202.864 259.367 202.803 259.43 202.725 259.477C202.649 259.523 202.564 259.545 202.469 259.545ZM205.97 253.602C206.209 253.604 206.447 253.65 206.686 253.739C206.925 253.828 207.143 253.975 207.339 254.182C207.536 254.386 207.695 254.666 207.814 255.02C207.933 255.374 207.993 255.818 207.993 256.352C207.993 256.869 207.944 257.329 207.845 257.73C207.749 258.13 207.608 258.467 207.425 258.741C207.243 259.016 207.021 259.224 206.76 259.366C206.5 259.509 206.207 259.58 205.879 259.58C205.554 259.58 205.263 259.515 205.007 259.386C204.753 259.256 204.545 259.075 204.382 258.844C204.221 258.611 204.118 258.341 204.072 258.034H204.766C204.828 258.301 204.952 258.522 205.138 258.696C205.325 258.868 205.572 258.955 205.879 258.955C206.328 258.955 206.682 258.759 206.942 258.366C207.203 257.974 207.334 257.42 207.334 256.705H207.288C207.182 256.864 207.056 257.001 206.911 257.116C206.765 257.232 206.603 257.321 206.425 257.384C206.247 257.446 206.057 257.477 205.857 257.477C205.523 257.477 205.217 257.395 204.939 257.23C204.662 257.063 204.441 256.835 204.274 256.545C204.109 256.254 204.027 255.92 204.027 255.545C204.027 255.189 204.107 254.864 204.266 254.568C204.427 254.271 204.652 254.034 204.942 253.858C205.233 253.682 205.576 253.597 205.97 253.602ZM205.97 254.227C205.732 254.227 205.517 254.287 205.325 254.406C205.136 254.524 204.985 254.683 204.874 254.884C204.764 255.082 204.709 255.303 204.709 255.545C204.709 255.788 204.762 256.009 204.868 256.207C204.976 256.404 205.123 256.562 205.308 256.679C205.496 256.795 205.709 256.852 205.947 256.852C206.127 256.852 206.295 256.817 206.45 256.747C206.606 256.675 206.741 256.578 206.857 256.455C206.974 256.33 207.066 256.188 207.132 256.031C207.198 255.872 207.232 255.706 207.232 255.534C207.232 255.307 207.177 255.094 207.067 254.895C206.959 254.696 206.809 254.535 206.618 254.412C206.429 254.289 206.213 254.227 205.97 254.227ZM210.962 253.602C211.201 253.604 211.44 253.65 211.678 253.739C211.917 253.828 212.135 253.975 212.332 254.182C212.529 254.386 212.687 254.666 212.806 255.02C212.925 255.374 212.985 255.818 212.985 256.352C212.985 256.869 212.936 257.329 212.837 257.73C212.741 258.13 212.601 258.467 212.417 258.741C212.235 259.016 212.013 259.224 211.752 259.366C211.493 259.509 211.199 259.58 210.871 259.58C210.546 259.58 210.255 259.515 209.999 259.386C209.746 259.256 209.537 259.075 209.374 258.844C209.213 258.611 209.11 258.341 209.065 258.034H209.758C209.82 258.301 209.944 258.522 210.13 258.696C210.317 258.868 210.565 258.955 210.871 258.955C211.32 258.955 211.674 258.759 211.934 258.366C212.195 257.974 212.326 257.42 212.326 256.705H212.281C212.174 256.864 212.049 257.001 211.903 257.116C211.757 257.232 211.595 257.321 211.417 257.384C211.239 257.446 211.049 257.477 210.849 257.477C210.515 257.477 210.21 257.395 209.931 257.23C209.655 257.063 209.433 256.835 209.266 256.545C209.102 256.254 209.019 255.92 209.019 255.545C209.019 255.189 209.099 254.864 209.258 254.568C209.419 254.271 209.644 254.034 209.934 253.858C210.226 253.682 210.568 253.597 210.962 253.602ZM210.962 254.227C210.724 254.227 210.509 254.287 210.317 254.406C210.128 254.524 209.978 254.683 209.866 254.884C209.756 255.082 209.701 255.303 209.701 255.545C209.701 255.788 209.754 256.009 209.86 256.207C209.968 256.404 210.115 256.562 210.3 256.679C210.488 256.795 210.701 256.852 210.94 256.852C211.12 256.852 211.287 256.817 211.442 256.747C211.598 256.675 211.733 256.578 211.849 256.455C211.966 256.33 212.058 256.188 212.124 256.031C212.191 255.872 212.224 255.706 212.224 255.534C212.224 255.307 212.169 255.094 212.059 254.895C211.951 254.696 211.801 254.535 211.61 254.412C211.421 254.289 211.205 254.227 210.962 254.227Z" fill="#A1A1A6"/>
<path d="M181.818 284.227V276.955H182.284V284.227H181.818ZM183.386 279.136C183.352 278.848 183.214 278.625 182.972 278.466C182.729 278.307 182.432 278.227 182.08 278.227C181.822 278.227 181.597 278.269 181.403 278.352C181.212 278.436 181.063 278.55 180.955 278.696C180.848 278.842 180.795 279.008 180.795 279.193C180.795 279.348 180.832 279.482 180.906 279.594C180.982 279.704 181.079 279.795 181.196 279.869C181.313 279.941 181.437 280.001 181.565 280.048C181.694 280.094 181.812 280.131 181.92 280.159L182.511 280.318C182.663 280.358 182.831 280.413 183.017 280.483C183.205 280.553 183.384 280.649 183.554 280.77C183.726 280.889 183.868 281.043 183.98 281.23C184.092 281.418 184.148 281.648 184.148 281.92C184.148 282.235 184.065 282.519 183.901 282.773C183.738 283.027 183.499 283.228 183.185 283.378C182.872 283.527 182.492 283.602 182.045 283.602C181.629 283.602 181.268 283.535 180.963 283.401C180.66 283.266 180.421 283.079 180.247 282.838C180.075 282.598 179.977 282.318 179.955 282H180.682C180.701 282.22 180.775 282.402 180.903 282.545C181.034 282.687 181.199 282.794 181.398 282.864C181.598 282.932 181.814 282.966 182.045 282.966C182.314 282.966 182.556 282.922 182.77 282.835C182.984 282.746 183.153 282.623 183.278 282.466C183.403 282.307 183.466 282.121 183.466 281.909C183.466 281.716 183.412 281.559 183.304 281.438C183.196 281.316 183.054 281.218 182.878 281.142C182.702 281.066 182.511 281 182.307 280.943L181.591 280.739C181.136 280.608 180.777 280.421 180.511 280.179C180.246 279.937 180.114 279.619 180.114 279.227C180.114 278.902 180.202 278.617 180.378 278.375C180.556 278.131 180.795 277.941 181.094 277.807C181.395 277.67 181.731 277.602 182.102 277.602C182.477 277.602 182.811 277.67 183.102 277.804C183.394 277.937 183.625 278.118 183.795 278.349C183.968 278.58 184.059 278.843 184.068 279.136H183.386ZM187.249 277.682V283.5H186.545V278.42H186.511L185.09 279.364V278.648L186.545 277.682H187.249ZM188.923 283.5V282.989L190.843 280.886C191.068 280.64 191.254 280.426 191.4 280.244C191.546 280.061 191.654 279.888 191.724 279.727C191.796 279.564 191.832 279.394 191.832 279.216C191.832 279.011 191.782 278.834 191.684 278.685C191.587 278.535 191.455 278.42 191.286 278.338C191.118 278.257 190.928 278.216 190.718 278.216C190.495 278.216 190.299 278.262 190.133 278.355C189.968 278.446 189.84 278.574 189.749 278.739C189.66 278.903 189.616 279.097 189.616 279.318H188.945C188.945 278.977 189.024 278.678 189.181 278.42C189.338 278.163 189.552 277.962 189.823 277.818C190.096 277.674 190.402 277.602 190.741 277.602C191.082 277.602 191.384 277.674 191.647 277.818C191.91 277.962 192.117 278.156 192.266 278.401C192.416 278.645 192.491 278.917 192.491 279.216C192.491 279.43 192.452 279.639 192.374 279.844C192.299 280.046 192.166 280.273 191.977 280.523C191.789 280.771 191.529 281.074 191.195 281.432L189.888 282.83V282.875H192.593V283.5H188.923ZM195.585 283.58C195.251 283.58 194.951 283.513 194.684 283.381C194.417 283.248 194.203 283.066 194.042 282.835C193.881 282.604 193.793 282.341 193.778 282.045H194.46C194.486 282.309 194.605 282.527 194.817 282.699C195.031 282.869 195.287 282.955 195.585 282.955C195.823 282.955 196.035 282.899 196.221 282.787C196.408 282.675 196.555 282.522 196.661 282.327C196.769 282.13 196.823 281.907 196.823 281.659C196.823 281.405 196.767 281.179 196.656 280.98C196.546 280.779 196.394 280.621 196.201 280.506C196.008 280.39 195.787 280.331 195.539 280.33C195.361 280.328 195.178 280.355 194.991 280.412C194.803 280.467 194.649 280.538 194.528 280.625L193.869 280.545L194.221 277.682H197.244V278.307H194.812L194.607 280.023H194.641C194.761 279.928 194.91 279.849 195.09 279.787C195.27 279.724 195.458 279.693 195.653 279.693C196.009 279.693 196.326 279.778 196.604 279.949C196.885 280.117 197.104 280.348 197.263 280.642C197.424 280.936 197.505 281.271 197.505 281.648C197.505 282.019 197.422 282.35 197.255 282.642C197.09 282.932 196.863 283.161 196.573 283.33C196.283 283.496 195.954 283.58 195.585 283.58ZM200.531 283.58C200.103 283.58 199.739 283.463 199.438 283.23C199.136 282.995 198.906 282.655 198.747 282.21C198.588 281.763 198.509 281.223 198.509 280.591C198.509 279.962 198.588 279.425 198.747 278.98C198.908 278.533 199.139 278.192 199.44 277.957C199.743 277.721 200.107 277.602 200.531 277.602C200.955 277.602 201.318 277.721 201.619 277.957C201.922 278.192 202.153 278.533 202.312 278.98C202.473 279.425 202.554 279.962 202.554 280.591C202.554 281.223 202.474 281.763 202.315 282.21C202.156 282.655 201.926 282.995 201.625 283.23C201.324 283.463 200.959 283.58 200.531 283.58ZM200.531 282.955C200.955 282.955 201.285 282.75 201.52 282.341C201.755 281.932 201.872 281.348 201.872 280.591C201.872 280.087 201.818 279.658 201.71 279.304C201.604 278.95 201.451 278.68 201.25 278.494C201.051 278.309 200.812 278.216 200.531 278.216C200.111 278.216 199.782 278.423 199.545 278.838C199.309 279.251 199.19 279.835 199.19 280.591C199.19 281.095 199.243 281.523 199.349 281.875C199.455 282.227 199.608 282.495 199.807 282.679C200.008 282.863 200.249 282.955 200.531 282.955ZM203.93 283.545C203.79 283.545 203.67 283.495 203.57 283.395C203.469 283.295 203.419 283.174 203.419 283.034C203.419 282.894 203.469 282.774 203.57 282.673C203.67 282.573 203.79 282.523 203.93 282.523C204.071 282.523 204.191 282.573 204.291 282.673C204.392 282.774 204.442 282.894 204.442 283.034C204.442 283.127 204.418 283.212 204.371 283.29C204.325 283.367 204.264 283.43 204.186 283.477C204.11 283.523 204.025 283.545 203.93 283.545ZM207.335 283.58C207.001 283.58 206.701 283.513 206.434 283.381C206.167 283.248 205.953 283.066 205.792 282.835C205.631 282.604 205.543 282.341 205.528 282.045H206.21C206.236 282.309 206.355 282.527 206.567 282.699C206.781 282.869 207.037 282.955 207.335 282.955C207.573 282.955 207.785 282.899 207.971 282.787C208.158 282.675 208.305 282.522 208.411 282.327C208.519 282.13 208.573 281.907 208.573 281.659C208.573 281.405 208.517 281.179 208.406 280.98C208.296 280.779 208.144 280.621 207.951 280.506C207.758 280.39 207.537 280.331 207.289 280.33C207.111 280.328 206.928 280.355 206.741 280.412C206.553 280.467 206.399 280.538 206.278 280.625L205.619 280.545L205.971 277.682H208.994V278.307H206.562L206.357 280.023H206.391C206.511 279.928 206.66 279.849 206.84 279.787C207.02 279.724 207.208 279.693 207.403 279.693C207.759 279.693 208.076 279.778 208.354 279.949C208.635 280.117 208.854 280.348 209.013 280.642C209.174 280.936 209.255 281.271 209.255 281.648C209.255 282.019 209.172 282.35 209.005 282.642C208.84 282.932 208.613 283.161 208.323 283.33C208.033 283.496 207.704 283.58 207.335 283.58ZM212.429 277.682V283.5H211.724V278.42H211.69L210.27 279.364V278.648L211.724 277.682H212.429Z" fill="#A1A1A6"/>
<path d="M102.886 278.307V277.682H107.25V278.307H105.421V283.5H104.716V278.307H102.886ZM107.793 283.5V279.136H108.441V279.795H108.487C108.566 279.58 108.71 279.404 108.918 279.27C109.127 279.135 109.362 279.068 109.623 279.068C109.672 279.068 109.734 279.069 109.808 279.071C109.881 279.073 109.937 279.076 109.975 279.08V279.761C109.952 279.756 109.9 279.747 109.819 279.736C109.739 279.723 109.655 279.716 109.566 279.716C109.354 279.716 109.165 279.76 108.998 279.849C108.833 279.937 108.702 280.058 108.606 280.213C108.511 280.366 108.464 280.542 108.464 280.739V283.5H107.793ZM112.054 283.602C111.778 283.602 111.527 283.55 111.301 283.446C111.076 283.34 110.897 283.188 110.764 282.989C110.632 282.788 110.565 282.545 110.565 282.261C110.565 282.011 110.615 281.809 110.713 281.653C110.812 281.496 110.943 281.373 111.108 281.284C111.273 281.195 111.455 281.129 111.653 281.085C111.854 281.04 112.056 281.004 112.259 280.977C112.524 280.943 112.739 280.918 112.903 280.901C113.07 280.882 113.191 280.85 113.267 280.807C113.345 280.763 113.384 280.687 113.384 280.58V280.557C113.384 280.277 113.307 280.059 113.153 279.903C113.002 279.748 112.772 279.67 112.463 279.67C112.143 279.67 111.892 279.741 111.71 279.881C111.528 280.021 111.401 280.17 111.327 280.33L110.69 280.102C110.804 279.837 110.956 279.631 111.145 279.483C111.336 279.333 111.545 279.229 111.77 279.17C111.997 279.11 112.221 279.08 112.44 279.08C112.581 279.08 112.742 279.097 112.923 279.131C113.107 279.163 113.284 279.23 113.455 279.332C113.627 279.435 113.77 279.589 113.884 279.795C113.997 280.002 114.054 280.278 114.054 280.625V283.5H113.384V282.909H113.349C113.304 283.004 113.228 283.105 113.122 283.213C113.016 283.321 112.875 283.413 112.699 283.489C112.523 283.564 112.308 283.602 112.054 283.602ZM112.156 283C112.421 283 112.645 282.948 112.827 282.844C113.01 282.74 113.149 282.605 113.242 282.44C113.336 282.276 113.384 282.102 113.384 281.92V281.307C113.355 281.341 113.293 281.372 113.196 281.401C113.101 281.427 112.992 281.451 112.867 281.472C112.743 281.491 112.623 281.508 112.506 281.523C112.39 281.536 112.296 281.547 112.224 281.557C112.05 281.58 111.887 281.616 111.736 281.668C111.586 281.717 111.465 281.792 111.372 281.892C111.281 281.991 111.236 282.125 111.236 282.295C111.236 282.528 111.322 282.705 111.494 282.824C111.669 282.941 111.889 283 112.156 283ZM118.69 279.136L117.076 283.5H116.394L114.781 279.136H115.508L116.712 282.614H116.758L117.962 279.136H118.69ZM121.248 283.591C120.827 283.591 120.465 283.498 120.16 283.312C119.857 283.125 119.623 282.864 119.458 282.528C119.295 282.191 119.214 281.799 119.214 281.352C119.214 280.905 119.295 280.511 119.458 280.17C119.623 279.828 119.852 279.561 120.146 279.369C120.441 279.176 120.786 279.08 121.18 279.08C121.407 279.08 121.631 279.117 121.853 279.193C122.075 279.269 122.276 279.392 122.458 279.562C122.64 279.731 122.785 279.955 122.893 280.233C123.001 280.511 123.055 280.854 123.055 281.261V281.545H119.691V280.966H122.373C122.373 280.72 122.324 280.5 122.225 280.307C122.129 280.114 121.99 279.961 121.81 279.849C121.632 279.738 121.422 279.682 121.18 279.682C120.913 279.682 120.682 279.748 120.487 279.881C120.293 280.011 120.145 280.182 120.041 280.392C119.936 280.602 119.884 280.828 119.884 281.068V281.455C119.884 281.784 119.941 282.063 120.055 282.293C120.17 282.52 120.33 282.693 120.535 282.812C120.739 282.93 120.977 282.989 121.248 282.989C121.424 282.989 121.583 282.964 121.725 282.915C121.869 282.864 121.993 282.788 122.097 282.688C122.202 282.585 122.282 282.458 122.339 282.307L122.987 282.489C122.918 282.708 122.804 282.902 122.643 283.068C122.482 283.233 122.283 283.362 122.046 283.455C121.809 283.545 121.543 283.591 121.248 283.591ZM124.745 277.682V283.5H124.075V277.682H124.745Z" fill="#A1A1A6"/>
<path d="M96.5 250.5H88.5C87.3954 250.5 86.5 251.395 86.5 252.5V260.5C86.5 261.605 87.3954 262.5 88.5 262.5H96.5C97.6046 262.5 98.5 261.605 98.5 260.5V252.5C98.5 251.395 97.6046 250.5 96.5 250.5Z" fill="#D9D9D9" fill-opacity="0.1"/>
<path d="M96.5 274.5H88.5C87.3954 274.5 86.5 275.395 86.5 276.5V284.5C86.5 285.605 87.3954 286.5 88.5 286.5H96.5C97.6046 286.5 98.5 285.605 98.5 284.5V276.5C98.5 275.395 97.6046 274.5 96.5 274.5Z" fill="#D9D9D9" fill-opacity="0.1"/>
<path d="M96.5 298.5H88.5C87.3954 298.5 86.5 299.395 86.5 300.5V308.5C86.5 309.605 87.3954 310.5 88.5 310.5H96.5C97.6046 310.5 98.5 309.605 98.5 308.5V300.5C98.5 299.395 97.6046 298.5 96.5 298.5Z" fill="#D9D9D9" fill-opacity="0.1"/>
<path d="M216.5 124.5C216.5 121.739 218.739 119.5 221.5 119.5H225.5V199.5H221.5C218.739 199.5 216.5 197.261 216.5 194.5V124.5Z" fill="#0A0A0D"/>
<path d="M166.7 68.5H133.6C129.817 68.5 126.75 71.5668 126.75 75.35C126.75 79.1332 129.817 82.2 133.6 82.2H166.7C170.483 82.2 173.55 79.1332 173.55 75.35C173.55 71.5668 170.483 68.5 166.7 68.5Z" fill="#010101"/>
</g>
</g>
<defs>
<linearGradient id="paint0_linear_885_10638" x1="150" y1="0" x2="150" y2="300" gradientUnits="userSpaceOnUse">
<stop/>
<stop offset="0.885"/>
<stop offset="1" stop-opacity="0"/>
</linearGradient>
<linearGradient id="paint1_linear_885_10638" x1="149.238" y1="90.1797" x2="149.238" y2="300.618" gradientUnits="userSpaceOnUse">
<stop stop-color="#A3A7B1" stop-opacity="0"/>
<stop offset="0.49" stop-color="#A3A7B1"/>
<stop offset="1" stop-color="#A3A7B1" stop-opacity="0"/>
</linearGradient>
<linearGradient id="paint2_linear_885_10638" x1="9.21344" y1="195.464" x2="289.804" y2="195.464" gradientUnits="userSpaceOnUse">
<stop stop-color="#A3A7B1" stop-opacity="0.4"/>
<stop offset="0.49" stop-color="#A3A7B1"/>
<stop offset="1" stop-color="#A3A7B1" stop-opacity="0.4"/>
</linearGradient>
<linearGradient id="paint3_linear_885_10638" x1="-40.5261" y1="195.472" x2="340.264" y2="195.472" gradientUnits="userSpaceOnUse">
<stop stop-color="#A3A7B1" stop-opacity="0.4"/>
<stop offset="0.49" stop-color="#A3A7B1"/>
<stop offset="1" stop-color="#A3A7B1" stop-opacity="0.4"/>
</linearGradient>
<linearGradient id="paint4_linear_885_10638" x1="97.3422" y1="131.088" x2="97.3422" y2="133.912" gradientUnits="userSpaceOnUse">
<stop stop-color="#006ADC"/>
<stop offset="1" stop-color="#006ADC" stop-opacity="0.3"/>
</linearGradient>
<linearGradient id="paint5_linear_885_10638" x1="97" y1="138.5" x2="97" y2="126.487" gradientUnits="userSpaceOnUse">
<stop stop-color="#373737"/>
<stop offset="0.308" stop-color="#666666"/>
<stop offset="0.691" stop-color="#9D9D9D"/>
<stop offset="1" stop-color="#BFBFBF"/>
</linearGradient>
<linearGradient id="paint6_linear_885_10638" x1="97" y1="138.5" x2="97" y2="126.487" gradientUnits="userSpaceOnUse">
<stop stop-color="#373737"/>
<stop offset="0.308" stop-color="#666666"/>
<stop offset="0.691" stop-color="#9D9D9D"/>
<stop offset="1" stop-color="#BFBFBF"/>
</linearGradient>
<linearGradient id="paint7_linear_885_10638" x1="191.626" y1="135.518" x2="191.626" y2="128.874" gradientUnits="userSpaceOnUse">
<stop stop-color="#373737"/>
<stop offset="0.308" stop-color="#666666"/>
<stop offset="0.691" stop-color="#9D9D9D"/>
<stop offset="1" stop-color="#BFBFBF"/>
</linearGradient>
<clipPath id="clip0_885_10638">
<rect width="163" height="335" fill="white" transform="translate(68.5 57)"/>
</clipPath>
</defs>
</svg>
