<svg width="361" height="440" viewBox="0 0 361 440" fill="none" xmlns="http://www.w3.org/2000/svg">
<g clip-path="url(#clip0_290_11118)">
<rect width="361" height="440" fill="#000B1E"/>
<path d="M272.173 -21.7648C272.602 -23.8234 273.004 -25.8934 273.381 -27.9733C273.919 -29.4154 274.447 -30.8627 274.942 -32.3209C274.115 -28.7653 273.204 -25.2415 272.173 -21.7648ZM269.668 -14.0078C270.152 -16.6557 270.598 -19.3217 271.009 -22.0028C271.664 -23.5492 272.302 -25.1018 272.902 -26.6669C272.436 -24.1749 271.935 -21.6967 271.391 -19.2358C270.843 -17.4846 270.273 -15.7386 269.668 -14.0078ZM268.278 -6.91457C268.667 -8.7576 269.035 -10.6098 269.387 -12.471C269.831 -13.7106 270.268 -14.9512 270.681 -16.2028C269.944 -13.0786 269.158 -9.97657 268.278 -6.91457ZM264.643 7.09019C264.97 5.53648 265.288 3.9776 265.593 2.41161C265.964 1.32551 266.333 0.237896 266.684 -0.857423C266.449 0.132126 266.212 1.11868 265.964 2.10115C265.544 3.77445 265.1 5.43508 264.643 7.09019ZM274.266 -149.306C274.144 -146.942 274.024 -144.574 273.914 -142.197C273.954 -147.019 274.008 -151.823 274.083 -156.606C274.141 -154.175 274.203 -151.743 274.266 -149.306ZM275.027 -162.415C274.81 -159.056 274.608 -155.685 274.423 -152.296C274.337 -155.662 274.258 -159.018 274.186 -162.367C274.255 -165.74 274.338 -169.098 274.437 -172.442C274.629 -169.109 274.827 -165.766 275.027 -162.415ZM265.421 -3.07913C265.899 -6.3315 266.342 -9.60165 266.754 -12.8894C267.322 -14.004 267.891 -15.1199 268.43 -16.2447C267.998 -13.1075 267.532 -9.98812 267.023 -6.89024C266.506 -5.61186 265.964 -4.3461 265.421 -3.07913ZM261.276 20.2728C261.539 19.0316 261.796 17.787 262.045 16.5373C262.295 15.7738 262.549 15.0095 262.793 14.244C262.309 16.2658 261.804 18.274 261.276 20.2728ZM273.561 -121.911C273.393 -119.595 273.232 -117.274 273.073 -114.952C273.239 -119.692 273.411 -124.423 273.596 -129.137L273.575 -124.753L273.561 -121.911ZM274.622 -135.807C274.34 -132.349 274.072 -128.881 273.813 -125.401C273.831 -128.888 273.848 -132.372 273.87 -135.848C274.018 -139.321 274.176 -142.785 274.346 -146.236L274.461 -141.869C274.516 -139.849 274.569 -137.828 274.622 -135.807ZM275.806 -149.339C275.45 -145.575 275.115 -141.791 274.8 -137.993L274.698 -141.874C274.632 -144.353 274.568 -146.827 274.503 -149.298C274.698 -153.051 274.91 -156.789 275.143 -160.507L275.237 -158.938C275.427 -155.746 275.62 -152.545 275.806 -149.339ZM277.166 -162.491C276.735 -158.631 276.332 -154.747 275.956 -150.841C275.795 -153.55 275.634 -156.255 275.473 -158.955L275.266 -162.411C275.516 -166.256 275.79 -170.081 276.093 -173.882C276.452 -170.092 276.812 -166.294 277.166 -162.491ZM260.673 19.9319C261.153 17.2614 261.609 14.577 262.045 11.8807C262.451 10.8888 262.858 9.89834 263.247 8.89746C262.795 11.4396 262.32 13.9679 261.817 16.4806C261.441 17.6325 261.069 18.7891 260.673 19.9319ZM259.282 27.306C259.675 25.3236 260.053 23.3326 260.416 21.3329C260.754 20.3871 261.087 19.4394 261.408 18.4846C260.992 20.4991 260.561 22.5033 260.111 24.4972C259.84 25.4369 259.562 26.3716 259.282 27.306ZM258.362 31.8191C258.496 31.1767 258.631 30.5343 258.762 29.8916C258.916 29.3982 259.054 28.8961 259.203 28.4009C258.932 29.5441 258.649 30.6833 258.362 31.8191ZM272.047 -92.5301C271.839 -90.2992 271.636 -88.0692 271.432 -85.8336L271.717 -90.3838C271.911 -93.4612 272.105 -96.5358 272.301 -99.6074C272.219 -97.2484 272.134 -94.8899 272.047 -92.5301ZM273.47 -107.402C273.114 -103.827 272.77 -100.243 272.431 -96.6506C272.56 -100.294 272.688 -103.935 272.815 -107.572C273.051 -111.164 273.293 -114.748 273.542 -118.323C273.521 -114.687 273.5 -111.045 273.47 -107.402ZM274.963 -121.79C274.535 -117.867 274.124 -113.925 273.727 -109.974C273.755 -113.952 273.776 -117.93 273.796 -121.905C274.076 -125.813 274.37 -129.71 274.679 -133.591C274.78 -129.662 274.877 -125.727 274.963 -121.79ZM276.575 -135.702C276.08 -131.67 275.611 -127.619 275.16 -123.549C275.067 -127.636 274.963 -131.722 274.856 -135.802C275.183 -139.808 275.529 -143.799 275.899 -147.769C276.132 -143.752 276.361 -139.728 276.575 -135.702ZM278.347 -149.264C277.783 -145.211 277.248 -141.131 276.738 -137.031C276.517 -141.135 276.283 -145.237 276.042 -149.333C276.425 -153.356 276.832 -157.359 277.271 -161.335C277.641 -157.317 278.002 -153.292 278.347 -149.264ZM280.322 -162.512C279.678 -158.476 279.07 -154.41 278.493 -150.316C278.142 -154.376 277.777 -158.433 277.401 -162.482C277.85 -166.497 278.332 -170.484 278.849 -174.441C279.356 -170.47 279.85 -166.492 280.322 -162.512ZM271.41 -76.6187C270.969 -72.8981 270.535 -69.1711 270.104 -65.441C270.366 -69.2834 270.62 -73.1295 270.867 -76.9777C271.203 -80.7215 271.541 -84.4623 271.883 -88.1985C271.736 -84.3374 271.581 -80.4757 271.41 -76.6187ZM273.294 -92.1315C272.778 -88.0081 272.275 -83.8722 271.781 -79.7283C271.96 -83.9903 272.125 -88.2565 272.282 -92.5237C272.662 -96.6225 273.049 -100.711 273.449 -104.788C273.41 -100.567 273.361 -96.3481 273.294 -92.1315ZM275.225 -107.039C274.653 -102.8 274.099 -98.5428 273.561 -94.2725C273.624 -98.6447 273.67 -103.02 273.705 -107.393C274.122 -111.591 274.553 -115.779 275.002 -119.947C275.094 -115.646 275.171 -111.34 275.225 -107.039ZM277.261 -121.432C276.631 -117.176 276.026 -112.9 275.44 -108.606C275.379 -112.996 275.295 -117.391 275.2 -121.784C275.661 -125.996 276.139 -130.189 276.647 -134.361C276.871 -130.052 277.079 -125.741 277.261 -121.432ZM279.445 -135.428C278.748 -131.199 278.082 -126.942 277.443 -122.666C277.254 -127.007 277.04 -131.352 276.809 -135.694C277.322 -139.887 277.864 -144.058 278.436 -148.202C278.797 -143.943 279.136 -139.684 279.445 -135.428ZM281.822 -149.057C281.048 -144.878 280.313 -140.666 279.609 -136.429C279.294 -140.703 278.949 -144.98 278.585 -149.254C279.164 -153.412 279.776 -157.542 280.425 -161.642C280.919 -157.446 281.389 -153.251 281.822 -149.057ZM269.002 -55.8908L268.806 -54.1889C269.204 -58.4977 269.595 -62.8084 269.984 -67.1196C269.83 -64.8534 269.673 -62.5903 269.514 -60.3275L269.002 -55.8908ZM270.555 -59.4692C269.927 -55.0555 269.307 -50.6381 268.689 -46.2177C269.064 -50.903 269.414 -55.6036 269.746 -60.3105C270.249 -64.6749 270.753 -69.0351 271.265 -73.3889C271.053 -68.7374 270.82 -64.0967 270.555 -59.4692ZM272.925 -75.7752C272.25 -71.2517 271.592 -66.7155 270.942 -62.174C271.203 -66.9735 271.435 -71.7875 271.645 -76.6067C272.172 -81.0572 272.707 -85.4969 273.255 -89.9268C273.174 -85.2007 273.066 -80.4817 272.925 -75.7752ZM275.312 -91.3309C274.595 -86.8181 273.899 -82.2874 273.218 -77.7427C273.352 -82.525 273.452 -87.3182 273.53 -92.1181C274.085 -96.5666 274.655 -101.004 275.246 -105.423C275.299 -100.718 275.324 -96.0179 275.312 -91.3309ZM277.778 -106.275C277.011 -101.81 276.27 -97.323 275.55 -92.816C275.555 -97.5439 275.522 -102.283 275.461 -107.026C276.057 -111.431 276.672 -115.815 277.313 -120.178C277.503 -115.537 277.662 -110.901 277.778 -106.275ZM280.373 -120.749C279.546 -116.348 278.751 -111.921 277.982 -107.471C277.858 -112.112 277.692 -116.763 277.496 -121.42C278.14 -125.775 278.813 -130.107 279.517 -134.411C279.843 -129.852 280.133 -125.295 280.373 -120.749ZM283.145 -134.79C282.246 -130.469 281.385 -126.116 280.557 -121.735C280.308 -126.287 280.013 -130.849 279.682 -135.413C280.39 -139.71 281.131 -143.98 281.909 -148.219C282.367 -143.737 282.784 -139.259 283.145 -134.79ZM267.624 -38.5828C267.241 -35.8403 266.86 -33.0974 266.476 -30.3536C266.914 -34.5386 267.333 -38.7341 267.741 -42.9377C268.201 -46.8944 268.657 -50.8529 269.113 -54.8114C268.799 -50.5747 268.47 -46.3482 268.118 -42.1339L267.624 -38.5828ZM263.42 -7.20731C263.793 -9.75981 264.16 -12.3144 264.527 -14.8718C264.243 -12.449 263.95 -10.0299 263.649 -7.61719C263.574 -7.48046 263.498 -7.34371 263.42 -7.20731ZM269.268 -40.2811C268.441 -35.2573 267.621 -30.2285 266.804 -25.1967C267.37 -30.8074 267.88 -36.4466 268.353 -42.1068C269.028 -46.9514 269.705 -51.7958 270.391 -56.6322C270.064 -51.1616 269.695 -45.7055 269.268 -40.2811ZM272.194 -57.7472C271.354 -52.8274 270.527 -47.8936 269.71 -42.9545C270.122 -48.4278 270.478 -53.9297 270.791 -59.4476C271.471 -64.2224 272.159 -68.988 272.862 -73.7435C272.689 -68.3923 272.473 -63.0571 272.194 -57.7472ZM275.07 -74.1857C274.203 -69.3771 273.359 -64.5492 272.527 -59.7088C272.792 -65.0355 272.997 -70.39 273.159 -75.7578C273.858 -80.4529 274.571 -85.1339 275.305 -89.7971C275.283 -84.5753 275.208 -79.3692 275.07 -74.1857ZM277.987 -89.8204C277.082 -85.1297 276.203 -80.4167 275.345 -75.6859C275.471 -80.875 275.534 -86.0866 275.547 -91.3136C276.278 -95.9149 277.03 -100.497 277.808 -105.057C277.927 -99.9617 277.993 -94.8793 277.987 -89.8204ZM281.002 -104.852C280.046 -100.269 279.122 -95.6604 278.224 -91.0271C278.217 -96.0861 278.144 -101.165 278.016 -106.256C278.792 -110.776 279.595 -115.272 280.43 -119.742C280.683 -114.763 280.88 -109.799 281.002 -104.852ZM284.16 -119.383C283.141 -114.908 282.161 -110.396 281.209 -105.86C281.078 -110.799 280.873 -115.759 280.61 -120.729C281.445 -125.166 282.309 -129.578 283.213 -133.955C283.6 -129.085 283.922 -124.224 284.16 -119.383ZM261.827 5.2075C261.308 8.30835 260.789 11.4049 260.261 14.4951C260.708 11.5743 261.141 8.64641 261.565 5.70626C261.653 5.54063 261.742 5.37498 261.827 5.2075ZM262.534 0.95782C262.342 2.11721 262.149 3.27786 261.957 4.43568C261.862 4.62694 261.764 4.8151 261.668 5.00486C261.975 2.86158 262.275 0.716209 262.57 -1.43534C262.824 -3.1388 263.075 -4.84541 263.326 -6.55196C263.409 -6.69748 263.489 -6.84606 263.571 -6.99042C263.236 -4.33368 262.891 -1.68382 262.534 0.95782ZM263.951 -7.67094L263.694 -6.08982C263.755 -6.5717 263.816 -7.05354 263.877 -7.53542L263.951 -7.67094ZM264.4 -8.95442C264.824 -11.551 265.246 -14.1491 265.668 -16.7487C265.407 -14.4146 265.136 -12.0857 264.852 -9.76379C264.701 -9.4931 264.549 -9.22391 264.4 -8.95442ZM262.763 1.00786C263.274 -2.08149 263.784 -5.17501 264.288 -8.272C264.45 -8.56216 264.613 -8.85236 264.776 -9.14376C264.341 -5.59831 263.876 -2.06881 263.382 1.44073C263.068 2.10804 262.756 2.77572 262.431 3.43908C262.542 2.63061 262.654 1.81937 262.763 1.00786ZM260.362 15.3114C260.639 13.6855 260.916 12.0581 261.191 10.4291C260.963 11.9652 260.73 13.4978 260.491 15.0271C260.448 15.1219 260.402 15.2163 260.362 15.3114ZM258.546 25.7627C259.106 22.5918 259.658 19.4145 260.203 16.2307C260.253 16.1201 260.304 16.0084 260.354 15.8978C259.878 18.9357 259.379 21.9585 258.858 24.9663C258.758 25.2332 258.65 25.4949 258.546 25.7627ZM256.924 34.8015C257.404 32.1768 257.877 29.5472 258.344 26.9099C258.448 26.6448 258.554 26.3828 258.659 26.1193C258.21 28.6742 257.748 31.2178 257.265 33.7495C257.151 34.1006 257.04 34.4535 256.924 34.8015ZM255.585 42.0267C255.939 40.1479 256.29 38.2644 256.637 36.3779C256.725 36.1235 256.822 35.8742 256.908 35.6182C256.517 37.6327 256.114 39.639 255.7 41.6369L255.585 42.0267ZM274.199 -54.462C273.163 -49.2629 272.145 -44.0478 271.142 -38.8199C271.674 -45.073 272.093 -51.3792 272.427 -57.7203C273.277 -62.6943 274.141 -67.657 275.026 -72.6007C274.85 -66.5172 274.582 -60.4664 274.199 -54.462ZM277.624 -71.1698C276.571 -66.1886 275.545 -61.185 274.539 -56.1652C274.898 -62.1239 275.146 -68.1272 275.306 -74.1613C276.176 -78.9821 277.066 -83.7839 277.983 -88.5633C277.965 -82.7315 277.854 -76.93 277.624 -71.1698ZM281.082 -86.9858C279.996 -82.1927 278.94 -77.3726 277.911 -72.5287C278.121 -78.2468 278.217 -84.0072 278.223 -89.7932C279.128 -94.4893 280.061 -99.1616 281.025 -103.808C281.151 -98.1717 281.179 -92.5592 281.082 -86.9858ZM284.636 -102.102C283.504 -97.4614 282.404 -92.7904 281.336 -88.091C281.415 -93.6372 281.376 -99.2194 281.238 -104.828C282.194 -109.412 283.181 -113.97 284.206 -118.494C284.464 -113.002 284.617 -107.534 284.636 -102.102ZM257.669 33.2656C257.381 34.7614 257.091 36.2585 256.8 37.7513C256.715 38.0628 256.628 38.3713 256.54 38.6825C256.865 37.0607 257.182 35.4365 257.493 33.8062C257.552 33.6261 257.609 33.4456 257.669 33.2656ZM259.411 24.1284C258.951 26.5588 258.49 28.9834 258.025 31.4077C257.963 31.6 257.899 31.792 257.838 31.9859C258.269 29.6768 258.683 27.3575 259.086 25.03C259.199 24.7314 259.3 24.4273 259.411 24.1284ZM261.422 13.3949C260.846 16.4919 260.267 19.5831 259.686 22.6712C259.562 23.0128 259.439 23.3574 259.316 23.7005C259.803 20.8467 260.269 17.9766 260.718 15.0948C260.961 14.5328 261.185 13.9603 261.422 13.3949ZM262.384 8.2135C262.134 9.56276 261.885 10.9107 261.633 12.2584C261.376 12.8811 261.125 13.5061 260.866 14.1257C261.373 10.8393 261.856 7.53627 262.32 4.21853C262.645 3.5552 262.957 2.88752 263.271 2.22017C262.986 4.22742 262.69 6.22525 262.384 8.2135ZM263.631 1.46941L263.566 1.82889L263.609 1.51537L263.631 1.46941ZM264.616 -3.86719L263.796 0.570204C263.77 0.625342 263.744 0.680456 263.719 0.734353C264.203 -2.72091 264.656 -6.19364 265.082 -9.68328C265.399 -10.2603 265.707 -10.8398 266.01 -11.4212C265.544 -8.9029 265.08 -6.38426 264.616 -3.86719ZM264.186 -0.249157L264.846 -3.82545C265.358 -6.60292 265.87 -9.38196 266.384 -12.1607L266.438 -12.2639C266.012 -8.903 265.554 -5.55963 265.059 -2.23438C264.774 -1.57335 264.488 -0.908299 264.186 -0.249157ZM262.615 8.25951C263.085 5.72508 263.553 3.18755 264.021 0.650045C264.323 -0.00485545 264.628 -0.659404 264.921 -1.31676C264.471 1.6742 263.988 4.64767 263.474 7.60365C263.063 8.69475 262.641 9.78187 262.206 10.8646C262.344 9.99557 262.481 9.12768 262.615 8.25951ZM260.185 21.2842L260.264 20.8625L260.189 21.2708L260.185 21.2842ZM259.195 26.5274C259.435 25.2641 259.675 23.9981 259.912 22.7346L259.929 22.6841C259.691 23.9695 259.446 25.2501 259.195 26.5274ZM264.815 4.65719C264.377 6.79082 263.938 8.92445 263.5 11.0568C263.148 12.2489 262.792 13.4378 262.422 14.621C262.869 12.3138 263.296 9.99452 263.702 7.66185C264.081 6.66396 264.456 5.6643 264.815 4.65719ZM266.103 -1.58085C265.793 -0.0777511 265.482 1.42657 265.174 2.92846C264.771 4.09527 264.347 5.25132 263.92 6.40432C264.404 3.56269 264.86 0.706619 265.289 -2.16639C265.814 -3.35929 266.338 -4.55371 266.832 -5.7571C266.598 -4.36171 266.355 -2.97006 266.103 -1.58085ZM269.779 -19.1973C268.999 -15.5005 268.223 -11.8032 267.454 -8.10248C267.925 -11.044 268.362 -14.0032 268.765 -16.9804C269.111 -17.7147 269.446 -18.4558 269.779 -19.1973ZM279.972 -64.8464C278.738 -59.7005 277.533 -54.5264 276.354 -49.3327C277.08 -56.5163 277.565 -63.7942 277.859 -71.1399C278.899 -76.0601 279.964 -80.9568 281.06 -85.8249C280.913 -78.7615 280.568 -71.7611 279.972 -64.8464ZM283.976 -81.0166C282.731 -76.1545 281.519 -71.2651 280.335 -66.3503C280.885 -73.1443 281.198 -80.0209 281.32 -86.9556C282.395 -91.7015 283.5 -96.4204 284.64 -101.109C284.641 -94.3471 284.435 -87.6437 283.976 -81.0166ZM270.455 -21.2772C270.686 -22.3614 270.917 -23.4428 271.149 -24.5269C271.029 -23.7069 270.907 -22.8899 270.783 -22.0733C270.676 -21.8085 270.57 -21.541 270.455 -21.2772ZM267.932 -9.24122C268.69 -12.8865 269.455 -16.531 270.224 -20.1695C270.356 -20.4714 270.5 -20.7721 270.631 -21.0755C270.182 -18.2117 269.693 -15.3664 269.162 -12.5399C268.765 -11.4347 268.349 -10.3372 267.932 -9.24122ZM266.333 -1.53911C266.764 -3.63341 267.199 -5.72741 267.633 -7.82138C268.048 -8.88013 268.468 -9.93702 268.863 -11.0023C268.408 -8.65725 267.925 -6.32792 267.41 -4.01333C266.931 -2.4425 266.438 -0.878727 265.922 0.676713C266.062 -0.0605607 266.199 -0.79967 266.333 -1.53911ZM-254.475 268.089C-253.522 269.616 -252.572 271.127 -251.624 272.639C-253.614 269.768 -255.619 266.856 -257.629 263.929C-256.575 265.316 -255.521 266.713 -254.475 268.089ZM-243.009 285.372C-242.08 286.983 -241.16 288.57 -240.234 290.165C-242.119 287.228 -244.019 284.239 -245.922 281.24C-244.946 282.629 -243.979 283.995 -243.009 285.372ZM-248.211 276.278C-246.886 278.602 -245.564 280.914 -244.247 283.207C-245.755 281.063 -247.267 278.903 -248.785 276.722C-250.14 274.576 -251.507 272.381 -252.871 270.204C-251.309 272.252 -249.762 274.262 -248.211 276.278ZM-253.391 267.124C-251.948 269.683 -250.502 272.257 -249.072 274.773C-250.801 272.519 -252.537 270.25 -254.28 267.956C-255.804 265.516 -257.341 263.027 -258.878 260.548C-257.039 262.763 -255.213 264.947 -253.391 267.124ZM-232.06 303.222C-231.211 304.824 -230.36 306.435 -229.515 308.02C-231.304 305.001 -233.104 301.94 -234.908 298.857C-233.956 300.328 -233.011 301.768 -232.06 303.222ZM-237.01 293.836C-235.746 296.246 -234.49 298.625 -233.233 301.001C-234.658 298.812 -236.094 296.584 -237.529 294.361C-238.853 292.086 -240.18 289.802 -241.513 287.494C-240.007 289.626 -238.507 291.74 -237.01 293.836ZM-241.901 284.444C-240.523 287.1 -239.151 289.74 -237.782 292.355C-239.449 290.012 -241.129 287.633 -242.812 285.243C-244.253 282.742 -245.703 280.194 -247.156 277.651C-245.396 279.936 -243.644 282.202 -241.901 284.444ZM-246.756 275.008C-245.334 277.784 -243.911 280.57 -242.499 283.298C-244.327 280.943 -246.171 278.55 -248.017 276.146C-249.524 273.499 -251.046 270.8 -252.566 268.109C-250.621 270.429 -248.683 272.734 -246.756 275.008ZM-250.453 266.746C-249.95 268.081 -249.454 269.391 -248.949 270.734L-248.945 270.741L-248.943 270.745C-248.366 271.875 -247.795 272.979 -247.223 274.092C-249.2 271.755 -251.196 269.377 -253.194 266.99C-254.071 265.437 -254.948 263.892 -255.834 262.312C-256.157 261.477 -256.476 260.663 -256.799 259.829C-254.675 262.159 -252.559 264.466 -250.453 266.746ZM-221.712 321.516C-220.95 323.082 -220.184 324.668 -219.425 326.218C-221.109 323.136 -222.798 320.032 -224.495 316.884C-223.567 318.438 -222.637 319.984 -221.712 321.516ZM-226.36 311.911C-225.18 314.363 -224.006 316.799 -222.832 319.215C-224.172 316.99 -225.522 314.72 -226.872 312.456C-228.14 310.093 -229.407 307.73 -230.682 305.331C-229.238 307.539 -227.792 309.742 -226.36 311.911ZM-230.978 302.254C-229.677 304.992 -228.382 307.698 -227.088 310.392C-228.669 307.998 -230.261 305.554 -231.855 303.11C-233.241 300.496 -234.629 297.877 -236.023 295.219C-234.335 297.581 -232.651 299.938 -230.978 302.254ZM-235.551 292.572C-234.202 295.442 -232.857 298.29 -231.517 301.113C-233.269 298.683 -235.037 296.202 -236.806 293.721C-238.232 291 -239.667 288.236 -241.102 285.468C-239.246 287.851 -237.388 290.236 -235.551 292.572ZM-240.082 282.853C-238.718 285.793 -237.353 288.737 -235.998 291.623C-237.887 289.221 -239.792 286.773 -241.699 284.319C-243.155 281.511 -244.622 278.648 -246.088 275.792C-244.079 278.165 -242.07 280.535 -240.082 282.853ZM-243.678 274.055C-243.067 275.729 -242.46 277.374 -241.848 279.061L-241.843 279.07C-241.378 280.076 -240.917 281.06 -240.454 282.053C-242.476 279.694 -244.514 277.291 -246.556 274.878C-247.28 273.469 -248.003 272.069 -248.733 270.639C-249.167 269.481 -249.595 268.354 -250.029 267.201C-247.904 269.504 -245.781 271.806 -243.678 274.055ZM-246.818 265.476C-245.843 268.123 -244.864 270.814 -243.883 273.494C-245.989 271.237 -248.119 268.928 -250.249 266.622C-251.16 264.195 -252.072 261.774 -252.981 259.375C-250.92 261.421 -248.858 263.47 -246.818 265.476ZM-211.961 340.243C-211.247 341.847 -210.53 343.453 -209.818 345.04C-211.396 341.904 -212.979 338.736 -214.57 335.531C-213.698 337.106 -212.827 338.69 -211.961 340.243ZM-216.311 330.413C-215.23 332.872 -214.148 335.33 -213.072 337.752C-214.319 335.507 -215.572 333.241 -216.827 330.956C-218.013 328.551 -219.204 326.125 -220.397 323.682C-219.032 325.94 -217.667 328.199 -216.311 330.413ZM-220.638 320.521C-219.432 323.296 -218.229 326.052 -217.031 328.782C-218.517 326.349 -220.01 323.884 -221.505 321.407C-222.81 318.729 -224.116 316.037 -225.428 313.314C-223.826 315.734 -222.225 318.15 -220.638 320.521ZM-224.933 310.574C-223.672 313.512 -222.416 316.417 -221.163 319.307C-222.82 316.829 -224.485 314.32 -226.155 311.796C-227.513 308.975 -228.87 306.145 -230.237 303.275C-228.461 305.729 -226.691 308.17 -224.933 310.574ZM-229.191 300.592C-227.904 303.624 -226.623 306.626 -225.345 309.609C-227.147 307.141 -228.956 304.649 -230.774 302.135C-232.145 299.247 -233.526 296.321 -234.909 293.382C-232.994 295.809 -231.089 298.213 -229.191 300.592ZM-233.401 290.586C-232.11 293.668 -230.818 296.752 -229.536 299.779C-231.465 297.356 -233.401 294.918 -235.349 292.447C-236.732 289.502 -238.126 286.502 -239.519 283.507C-237.47 285.893 -235.432 288.247 -233.401 290.586ZM-236.938 281.22C-236.207 283.28 -235.479 285.312 -234.744 287.392L-234.742 287.398C-234.392 288.238 -234.043 289.06 -233.694 289.887C-235.75 287.517 -237.806 285.145 -239.881 282.727C-240.463 281.48 -241.042 280.241 -241.628 278.977C-242.177 277.465 -242.722 275.992 -243.268 274.49C-241.146 276.76 -239.039 278.997 -236.938 281.22ZM-240.258 271.88C-239.222 274.779 -238.175 277.734 -237.132 280.668C-239.238 278.439 -241.347 276.203 -243.473 273.929C-244.459 271.228 -245.447 268.523 -246.426 265.855C-244.361 267.885 -242.305 269.891 -240.258 271.88ZM-243.739 262.203C-242.642 265.249 -241.543 268.287 -240.439 271.374C-242.49 269.38 -244.544 267.376 -246.614 265.344C-247.675 262.46 -248.727 259.625 -249.782 256.781C-247.758 258.607 -245.745 260.411 -243.739 262.203ZM-202.817 359.343C-202.142 361.001 -201.468 362.642 -200.795 364.283C-202.27 361.091 -203.75 357.861 -205.236 354.598C-204.431 356.18 -203.62 357.78 -202.817 359.343ZM-206.875 349.299C-205.875 351.791 -204.873 354.297 -203.878 356.749C-205.038 354.484 -206.198 352.216 -207.366 349.911C-208.475 347.458 -209.589 344.972 -210.705 342.48C-209.424 344.767 -208.145 347.05 -206.875 349.299ZM-210.9 339.189C-209.783 342.013 -208.666 344.83 -207.553 347.61C-208.949 345.136 -210.346 342.655 -211.751 340.134C-212.969 337.402 -214.192 334.642 -215.417 331.865C-213.908 334.326 -212.401 336.772 -210.9 339.189ZM-214.895 329.031C-213.725 332.026 -212.557 335.001 -211.392 337.945C-212.959 335.419 -214.524 332.886 -216.099 330.31C-217.367 327.43 -218.638 324.527 -219.913 321.596C-218.234 324.101 -216.561 326.574 -214.895 329.031ZM-218.858 318.819C-217.661 321.92 -216.469 324.993 -215.281 328.042C-216.991 325.518 -218.704 322.986 -220.429 320.411C-221.722 317.438 -223.016 314.451 -224.315 311.424C-222.485 313.923 -220.671 316.375 -218.858 318.819ZM-222.792 308.562C-221.582 311.739 -220.377 314.877 -219.174 318C-221.017 315.509 -222.864 313.005 -224.726 310.463C-226.026 307.435 -227.329 304.373 -228.637 301.292C-226.679 303.744 -224.734 306.157 -222.792 308.562ZM-226.675 298.281C-225.467 301.493 -224.259 304.701 -223.059 307.857C-225.028 305.418 -227.001 302.965 -228.987 300.473C-230.287 297.406 -231.595 294.282 -232.905 291.161C-230.816 293.565 -228.742 295.93 -226.675 298.281ZM-230.21 288.286C-229.353 290.766 -228.5 293.217 -227.639 295.721L-227.638 295.725C-227.394 296.377 -227.151 297.017 -226.908 297.658C-228.995 295.284 -231.087 292.89 -233.195 290.463C-233.638 289.412 -234.078 288.372 -234.522 287.307C-235.197 285.4 -235.862 283.536 -236.535 281.643C-234.416 283.886 -232.311 286.092 -230.21 288.286ZM-233.701 278.212C-232.603 281.363 -231.499 284.563 -230.394 287.755C-232.498 285.556 -234.607 283.34 -236.732 281.094C-237.781 278.141 -238.833 275.17 -239.876 272.254C-237.806 274.265 -235.751 276.243 -233.701 278.212ZM-237.301 267.924C-236.161 271.169 -235.018 274.43 -233.871 277.723C-235.924 275.751 -237.982 273.766 -240.054 271.753C-241.164 268.648 -242.266 265.6 -243.371 262.536C-241.338 264.352 -239.316 266.142 -237.301 267.924ZM-240.986 257.48C-239.814 260.791 -238.64 264.111 -237.46 267.47C-239.478 265.685 -241.503 263.887 -243.541 262.068C-244.689 258.886 -245.832 255.724 -246.972 252.587C-244.968 254.233 -242.973 255.865 -240.986 257.48ZM-194.26 378.84C-193.625 380.556 -192.992 382.241 -192.359 383.939C-193.729 380.696 -195.107 377.415 -196.487 374.099C-195.745 375.678 -195.001 377.274 -194.26 378.84ZM-198.019 368.601C-197.082 371.173 -196.145 373.735 -195.21 376.268C-196.307 373.938 -197.402 371.616 -198.507 369.244C-199.536 366.755 -200.571 364.222 -201.602 361.692C-200.405 364.011 -199.211 366.318 -198.019 368.601ZM-201.745 358.296C-200.711 361.171 -199.679 364.048 -198.651 366.874C-199.965 364.35 -201.277 361.825 -202.601 359.252C-203.73 356.481 -204.864 353.67 -205.997 350.849C-204.574 353.357 -203.16 355.832 -201.745 358.296ZM-205.442 347.921C-204.362 350.973 -203.282 354.013 -202.207 357.014C-203.688 354.428 -205.171 351.833 -206.663 349.196C-207.837 346.269 -209.016 343.311 -210.198 340.331C-208.604 342.894 -207.022 345.41 -205.442 347.921ZM-209.106 337.496C-208.001 340.659 -206.899 343.801 -205.801 346.911C-207.424 344.327 -209.052 341.728 -210.688 339.089C-211.888 336.057 -213.091 332.998 -214.3 329.912C-212.561 332.471 -210.831 334.989 -209.106 337.496ZM-212.741 327.016C-211.624 330.257 -210.51 333.471 -209.401 336.657C-211.157 334.104 -212.915 331.533 -214.685 328.925C-215.899 325.818 -217.115 322.692 -218.336 319.529C-216.46 322.055 -214.596 324.544 -212.741 327.016ZM-216.345 316.487C-215.223 319.788 -214.104 323.053 -212.986 326.298C-214.866 323.793 -216.752 321.268 -218.65 318.709C-219.865 315.552 -221.088 312.369 -222.312 309.158C-220.312 311.631 -218.324 314.069 -216.345 316.487ZM-219.906 305.928C-218.787 309.262 -217.671 312.583 -216.557 315.86C-218.557 313.416 -220.566 310.946 -222.586 308.446C-223.797 305.265 -225.016 302.023 -226.235 298.784C-224.112 301.191 -222.003 303.574 -219.906 305.928ZM-223.495 295.264C-222.509 298.189 -221.529 301.09 -220.536 304.051C-220.387 304.493 -220.242 304.928 -220.094 305.364C-222.206 302.991 -224.331 300.588 -226.467 298.161C-226.783 297.322 -227.1 296.489 -227.418 295.641C-228.221 293.301 -229.019 291.012 -229.819 288.694C-227.703 290.906 -225.593 293.101 -223.495 295.264ZM-227.133 284.494C-225.983 287.884 -224.827 291.314 -223.668 294.749C-225.768 292.582 -227.884 290.38 -230.005 288.161C-231.114 284.952 -232.224 281.737 -233.326 278.571C-231.255 280.563 -229.185 282.547 -227.133 284.494ZM-230.834 273.624C-229.658 277.06 -228.477 280.533 -227.294 284.02C-229.348 282.07 -231.422 280.077 -233.496 278.082C-234.648 274.775 -235.794 271.504 -236.941 268.242C-234.9 270.046 -232.855 271.859 -230.834 273.624ZM-234.615 262.643C-233.408 266.138 -232.202 269.631 -230.987 273.18C-233.01 271.412 -235.057 269.594 -237.1 267.787C-238.284 264.416 -239.462 261.084 -240.637 257.763C-238.623 259.402 -236.611 261.037 -234.615 262.643ZM-238.439 251.609C-237.217 255.118 -235.989 258.66 -234.759 262.224C-236.757 260.616 -238.77 258.981 -240.787 257.34C-241.993 253.933 -243.2 250.533 -244.397 247.176C-242.401 248.67 -240.418 250.144 -238.439 251.609ZM288.347 -115.766C288.475 -109.199 288.379 -102.684 288.011 -96.2397C286.738 -91.6136 285.5 -86.9544 284.294 -82.2652C284.716 -88.7997 284.895 -95.4092 284.871 -102.07C285.994 -106.67 287.151 -111.236 288.347 -115.766ZM287.565 -132.675C287.948 -127.301 288.213 -121.951 288.331 -116.634C287.138 -112.138 285.984 -107.605 284.865 -103.041C284.831 -108.45 284.669 -113.892 284.398 -119.358C285.415 -123.833 286.47 -128.272 287.565 -132.675ZM286.213 -147.716C286.725 -142.939 287.164 -138.174 287.511 -133.426C286.42 -129.06 285.368 -124.659 284.353 -120.225C284.104 -125.057 283.776 -129.908 283.382 -134.769C284.287 -139.121 285.229 -143.436 286.213 -147.716ZM284.53 -161.622C285.118 -157.219 285.657 -152.819 286.134 -148.427C285.155 -144.187 284.219 -139.907 283.316 -135.598C282.945 -140.073 282.523 -144.557 282.059 -149.044C282.844 -153.27 283.666 -157.464 284.53 -161.622ZM282.652 -174.741C283.281 -170.602 283.879 -166.464 284.435 -162.325C283.575 -158.205 282.756 -154.051 281.974 -149.862C281.534 -154.076 281.059 -158.29 280.559 -162.505C281.216 -166.616 281.912 -170.698 282.652 -174.741ZM265.005 -19.8778L264.972 -19.8303C265.363 -22.9695 265.749 -26.1133 266.127 -29.2623C265.916 -27.252 265.701 -25.2436 265.479 -23.24C265.321 -22.1184 265.164 -20.9979 265.005 -19.8778ZM266.215 -21.784C265.945 -21.3511 265.682 -20.916 265.408 -20.485C265.509 -21.3902 265.611 -22.2955 265.711 -23.2023C266.393 -28.046 267.07 -32.8974 267.745 -37.7504C267.278 -32.4039 266.772 -27.0786 266.215 -21.784ZM267.834 -24.4575C267.422 -23.7695 267.008 -23.0818 266.586 -22.3978C267.399 -27.4051 268.213 -32.4138 269.034 -37.4175C268.676 -33.0751 268.278 -28.7554 267.834 -24.4575ZM268.7 -25.9034C268.512 -25.576 268.313 -25.2527 268.12 -24.9273C268.64 -30.0072 269.097 -35.1166 269.503 -40.254C270.351 -45.4112 271.21 -50.5615 272.084 -55.699C271.727 -49.2692 271.276 -42.8779 270.71 -36.5429C270.034 -33.0017 269.365 -29.4555 268.7 -25.9034ZM269.871 -28.044C269.605 -27.5525 269.341 -27.058 269.064 -26.5705C269.534 -29.0815 270.008 -31.5906 270.484 -34.0993C270.293 -32.0743 270.088 -30.0564 269.871 -28.044ZM272.206 -32.484C271.549 -31.1747 270.867 -29.8737 270.166 -28.5793C270.448 -31.2129 270.706 -33.8578 270.944 -36.5118C271.972 -41.9098 273.015 -47.2966 274.082 -52.6653C273.618 -45.8698 273.007 -39.1355 272.206 -32.484ZM272.948 -33.9886C272.806 -33.6974 272.662 -33.4065 272.516 -33.1145C273.347 -40.1378 273.973 -47.2512 274.433 -54.4309C275.455 -59.5541 276.497 -64.6611 277.565 -69.7444C277.238 -62.2045 276.704 -54.7398 275.911 -47.3756C274.91 -42.9245 273.92 -38.4623 272.948 -33.9886ZM274.726 -37.8085C274.288 -36.8215 273.84 -35.8358 273.376 -34.8575C274.133 -38.3325 274.901 -41.7979 275.677 -45.2569C275.391 -42.7636 275.075 -40.2793 274.726 -37.8085ZM277.312 -43.9993C276.602 -42.1837 275.857 -40.3789 275.07 -38.5901C275.471 -41.4886 275.829 -44.403 276.144 -47.3362C277.346 -52.6644 278.57 -57.9775 279.83 -63.2576C279.23 -56.7534 278.405 -50.3262 277.312 -43.9993ZM279.776 -50.7901C279.14 -48.8689 278.455 -46.9645 277.734 -45.0684C278.82 -51.554 279.628 -58.1424 280.205 -64.8099C281.4 -69.7982 282.625 -74.7595 283.88 -79.6923C283.366 -72.8195 282.572 -66.0301 281.445 -59.3511C280.959 -56.475 280.393 -53.6248 279.776 -50.7901ZM286.28 -78.751C285.022 -70.0276 283.141 -61.4825 280.529 -53.1617C280.948 -55.1993 281.328 -57.2511 281.677 -59.3134C282.876 -66.4216 283.697 -73.6525 284.207 -80.9788C285.419 -85.7116 286.663 -90.416 287.94 -95.0872C287.598 -89.5838 287.056 -84.1338 286.28 -78.751ZM277.54 -43.9328C278.183 -45.579 278.786 -47.2366 279.367 -48.9022C278.446 -44.8588 277.401 -40.8589 276.188 -36.917C276.364 -37.7472 276.548 -38.5749 276.71 -39.4094C277.003 -40.9116 277.278 -42.4201 277.54 -43.9328ZM274.954 -37.7393C275.708 -39.4265 276.426 -41.125 277.11 -42.8357C276.909 -41.7051 276.701 -40.5781 276.482 -39.4551C276.181 -37.908 275.854 -36.3723 275.515 -34.8395C274.913 -32.9878 274.29 -31.1468 273.625 -29.3176C274.111 -32.1065 274.553 -34.9129 274.954 -37.7393ZM273.169 -33.9062C273.656 -34.9138 274.138 -35.9247 274.6 -36.9393C274.169 -33.9544 273.687 -30.9892 273.156 -28.0448C272.522 -26.3492 271.857 -24.6684 271.163 -22.9949C271.401 -24.5837 271.628 -26.178 271.844 -27.7763C272.282 -29.8215 272.723 -31.8648 273.169 -33.9062ZM272.434 -32.4121C272.537 -32.6177 272.639 -32.8275 272.74 -33.0346C272.561 -32.2118 272.384 -31.3901 272.205 -30.5672C272.283 -31.1814 272.359 -31.796 272.434 -32.4121ZM270.098 -27.9666C270.785 -29.2309 271.469 -30.4955 272.119 -31.7725C271.957 -30.4476 271.789 -29.1277 271.611 -27.8102C271.07 -25.2922 270.534 -22.7723 270.001 -20.2506C269.638 -19.4254 269.255 -18.6067 268.875 -17.7876C269.323 -21.1612 269.729 -24.5548 270.098 -27.9666ZM268.924 -25.818C269.229 -26.352 269.517 -26.8923 269.807 -27.4309C269.427 -23.9512 269.004 -20.4902 268.539 -17.0535C267.991 -15.8909 267.425 -14.736 266.842 -13.5857C266.965 -14.5811 267.085 -15.5757 267.201 -16.5733C267.772 -19.6557 268.346 -22.7378 268.924 -25.818ZM268.063 -24.3798C268.23 -24.6611 268.408 -24.9384 268.572 -25.22C268.242 -23.4561 267.914 -21.6907 267.585 -19.9252C267.749 -21.4063 267.91 -22.892 268.063 -24.3798ZM266.486 -21.7735C266.927 -22.4831 267.353 -23.1958 267.778 -23.9085C267.524 -21.467 267.254 -19.0312 266.968 -16.6044C266.698 -15.1521 266.43 -13.6983 266.161 -12.2444C265.826 -11.5961 265.502 -10.9437 265.155 -10.3009C265.592 -13.9043 266 -17.5234 266.386 -21.1563L266.393 -21.2038L266.486 -21.7735ZM265.352 -19.9735C265.622 -20.3912 265.893 -20.81 266.158 -21.2282L266.153 -21.1886C265.458 -16.9073 264.763 -12.6286 264.064 -8.35188L263.954 -8.15549C264.442 -12.0812 264.907 -16.022 265.352 -19.9735ZM264.908 -19.3073L264.929 -19.338L264.793 -18.3703L264.908 -19.3073ZM-218.824 225.291C33.1921 350.546 142.193 315.856 199.103 220.566C232.035 165.424 247.524 90.0089 263.221 13.5856L263.433 12.556C263.583 11.9084 263.731 11.2621 263.876 10.614C264.696 7.81935 265.478 5.00504 266.191 2.16055C266.699 0.134613 267.181 -1.90394 267.638 -3.9524C269.13 -8.86908 270.441 -13.8633 271.567 -18.9358L271.616 -19.1614C273.215 -24.2791 274.578 -29.4861 275.74 -34.7705C277.42 -39.9992 278.833 -45.3212 280.003 -50.7224C283.023 -59.7953 285.135 -69.1502 286.513 -78.7144C287.343 -84.4705 287.906 -90.3045 288.244 -96.1949C305.73 -159.717 329.89 -216.885 372.413 -254.925L372.258 -255.113C329.924 -217.252 305.777 -160.462 288.304 -97.3126C288.636 -103.679 288.709 -110.114 288.565 -116.598C300.391 -161.178 316.018 -202.216 340.075 -235.018L339.323 -234.399C315.706 -201.892 300.257 -161.407 288.543 -117.448C288.411 -122.735 288.138 -128.056 287.748 -133.398C295.216 -163.283 304.598 -191.441 317.459 -216.391L316.987 -216.002C304.349 -191.35 295.087 -163.59 287.691 -134.142C287.336 -138.881 286.89 -143.638 286.371 -148.404C290.926 -168.12 296.395 -187.035 303.278 -204.714L302.894 -204.398C296.158 -187.022 290.784 -168.455 286.293 -149.115C285.809 -153.506 285.266 -157.905 284.673 -162.307C287.118 -173.994 289.911 -185.384 293.167 -196.386L292.832 -196.111C289.68 -185.412 286.963 -174.347 284.577 -163.004C284.015 -167.146 283.412 -171.291 282.781 -175.433C283.708 -180.449 284.706 -185.406 285.78 -190.303L285.485 -190.06C284.483 -185.472 283.546 -180.832 282.672 -176.139C282.146 -179.564 281.601 -182.985 281.043 -186.402L280.834 -186.229C281.42 -182.638 281.992 -179.042 282.542 -175.444C281.804 -171.451 281.108 -167.426 280.454 -163.366C279.976 -167.364 279.479 -171.362 278.967 -175.353C279.437 -178.904 279.938 -182.432 280.474 -185.933L280.197 -185.704C279.72 -182.582 279.273 -179.437 278.848 -176.272C278.526 -178.78 278.199 -181.288 277.87 -183.788L277.656 -183.612C278.017 -180.865 278.374 -178.114 278.727 -175.358C278.215 -171.477 277.735 -167.568 277.289 -163.631C276.929 -167.507 276.561 -171.375 276.192 -175.235C276.404 -177.824 276.629 -180.401 276.87 -182.964L276.616 -182.755C276.425 -180.697 276.241 -178.632 276.067 -176.56L275.561 -181.887L275.342 -181.706L275.887 -175.963L275.956 -175.241C275.659 -171.619 275.392 -167.975 275.145 -164.313C274.931 -167.925 274.719 -171.525 274.517 -175.117C274.584 -177.154 274.657 -179.185 274.74 -181.21L274.498 -181.011C274.453 -179.913 274.413 -178.814 274.372 -177.715C274.315 -178.734 274.261 -179.753 274.206 -180.77L273.98 -180.584C274.078 -178.767 274.178 -176.946 274.281 -175.123C274.202 -172.712 274.134 -170.291 274.072 -167.862C273.994 -172.099 273.933 -176.318 273.897 -180.514L273.663 -180.32C273.715 -174.377 273.818 -168.387 273.948 -162.364C273.77 -153.597 273.686 -144.747 273.63 -135.848C273.233 -126.485 272.904 -117.05 272.576 -107.588L272.575 -107.569C272.2 -101.856 271.84 -96.1273 271.479 -90.3905C271.199 -85.9242 270.916 -81.4513 270.629 -76.9816L270.286 -73.1554C269.382 -63.0851 268.479 -52.9995 267.503 -42.9554C266.588 -35.0817 265.655 -27.2169 264.676 -19.3865C228.688 35.6161 143.97 74.6859 -39.3534 77.4811L-39.6337 77.7119C143.54 74.9494 228.42 36.0118 264.612 -18.8662C264.094 -14.7279 263.561 -10.5982 263.012 -6.48141C227.67 54.5334 140.317 96.6873 -58.8086 93.5045L-59.0815 93.7293C139.789 96.9422 227.341 54.9844 262.927 -5.84311C262.731 -4.3823 262.534 -2.92574 262.334 -1.46949C261.971 0.966462 261.606 3.39938 261.234 5.82738C226.672 73.3449 137.391 118.928 -77.2237 108.671L-77.4878 108.889C136.785 119.162 226.288 73.8228 261.124 6.54462C260.568 10.169 259.999 13.7835 259.419 17.3869C225.724 91.996 135.232 141.51 -94.646 123.02L-94.9012 123.231C134.48 141.715 225.256 92.5487 259.277 18.275C258.752 21.5192 258.215 24.7537 257.666 27.9771C224.892 110.385 133.876 164.478 -111.071 136.548L-111.319 136.752C132.917 164.634 224.306 111.04 257.472 29.1029C256.992 31.8966 256.502 34.681 256.001 37.4542C224.117 128.46 133.362 188.017 -126.577 149.319L-126.819 149.518C132.154 188.108 223.393 129.247 255.743 38.8815C255.329 41.162 254.904 43.4357 254.472 45.7018C254.408 45.9118 254.344 46.1205 254.28 46.3305C222.98 146.412 132.991 212.037 -141.127 161.305L-141.362 161.498C131.943 212.111 222.405 147.145 254.102 47.63C253.805 49.1637 253.505 50.6928 253.201 52.2173C251.586 58.0824 249.815 63.8463 247.859 69.4893C212.828 170.602 119.48 233.7 -154.797 172.561L-155.024 172.748C119.556 233.984 213.005 170.808 248.081 69.5662C249.698 64.8953 251.192 60.1436 252.573 55.3208C252.488 55.7293 252.407 56.1382 252.322 56.5468C249.191 69.2731 245.474 81.5829 240.983 93.3339C202.167 194.914 105.594 254.819 -167.581 183.09L-167.802 183.272C105.66 255.104 202.336 195.124 241.202 93.4159C244.775 84.0646 247.859 74.3592 250.548 64.3727C246.107 83.1421 240.633 101.094 233.612 117.812C191.005 219.271 91.3773 275.309 -179.488 192.894L-179.707 193.074C91.4398 275.605 191.167 219.489 233.828 117.904C240.037 103.118 245.037 87.3676 249.182 70.9451C243.27 96.5947 235.827 120.899 225.72 142.861C179.365 243.602 76.9196 295.125 -190.529 201.987L-190.741 202.162C76.9751 295.421 179.521 243.828 225.934 142.959C236.644 119.687 244.363 93.7941 250.438 66.4556C242.501 103.48 232.403 138.353 217.299 168.389C167.291 267.83 62.3352 314.248 -200.729 210.388L-200.937 210.559C62.3784 314.544 167.438 268.06 217.509 168.496C234.597 134.515 245.282 94.3571 253.676 51.898C253.964 50.6584 254.247 49.414 254.526 48.1665C254.86 46.8878 255.188 45.6056 255.507 44.3183C244.549 99.5968 231.426 152.224 208.351 194.293C154.832 291.867 47.7181 332.644 -210.095 218.105L-210.296 218.27C47.7507 332.933 154.973 292.101 208.557 194.405C232.453 150.838 245.683 95.9712 256.878 38.5635C256.978 38.1291 257.078 37.6947 257.176 37.2599C258.319 33.0745 259.369 28.8369 260.337 24.5495C260.396 24.3417 260.46 24.1399 260.519 23.932C261.01 22.1867 261.48 20.4307 261.935 18.6672C246.593 93.3087 231.074 166.575 198.898 220.452C142.057 315.626 33.1658 350.264 -218.631 225.135L-218.822 225.293L-218.824 225.291ZM-226.546 231.652C18.8159 367.415 129.173 339.27 189.182 246.864C225.442 191.029 243.318 111.747 261.518 31.025C285.667 -76.0764 310.404 -185.703 379.403 -246.441L379.248 -246.629C310.197 -185.854 285.448 -76.1779 261.289 30.9723C243.092 111.674 225.221 190.934 188.984 246.735C129.048 339.026 18.8015 367.124 -226.354 231.491L-226.548 231.65L-226.546 231.652ZM-233.461 237.346C4.7211 383.51 116.004 362.262 178.853 273.172C218.527 216.932 238.898 133.682 259.744 48.495C286.777 -61.9831 314.612 -175.721 386.381 -237.969L386.227 -238.155C314.407 -175.87 286.561 -62.0855 259.518 48.4399C238.678 133.607 218.311 216.835 178.664 273.038C115.895 362.018 4.71774 383.218 -233.266 237.189L-233.46 237.348L-233.461 237.346ZM-239.578 242.385C-8.98739 398.866 102.782 384.783 168.188 299.372C211.309 243.062 234.275 155.774 257.9 65.9916C287.856 -47.86 318.881 -165.715 393.388 -229.464L393.234 -229.651C318.679 -165.864 287.641 -47.9652 257.674 65.931C234.057 155.692 211.095 242.955 168.004 299.229C102.679 384.529 -8.98231 398.572 -239.388 242.228L-239.578 242.385ZM-260.742 259.815L-260.608 259.993C-256.7 265.715 -252.822 271.343 -248.985 276.846C-245.198 282.849 -241.448 288.722 -237.725 294.489C-234.15 300.628 -230.602 306.652 -227.087 312.549C-223.708 318.85 -220.351 325.039 -217.027 331.083C-213.856 337.516 -210.704 343.841 -207.58 350.005C-204.607 356.582 -201.653 363.04 -198.721 369.335C-195.956 376.027 -193.208 382.573 -190.478 388.975C-110.528 601.411 -44.5977 665.917 16.5926 645.311C87.0929 621.57 151.242 484.818 223.303 331.2C300.293 167.075 386.324 -16.2786 498.718 -101.572L498.569 -101.753C386.128 -16.4175 300.088 166.956 223.09 331.101C151.052 484.671 86.9215 621.38 16.5176 645.088C-44.049 665.483 -109.306 602.185 -188.317 394.014C-103.785 590.536 -36.2243 647.82 24.7033 624.857C95.3606 598.228 157.043 463.679 225.948 313.383C299.664 152.591 381.651 -26.2092 491.678 -110.119L491.528 -110.301C381.455 -26.3509 299.458 152.47 225.733 313.285C156.851 463.537 95.1875 598.042 24.6212 624.637C-36.699 647.748 -104.788 589.333 -190.26 388.898C-191.198 386.406 -192.14 383.864 -193.082 381.332C-100.536 576.293 -29.2547 630.327 33.1403 604.167C103.709 574.581 162.857 442.396 228.551 295.582C299.009 138.126 376.998 -36.1513 484.637 -118.669L484.487 -118.851C376.802 -36.2931 298.801 138.01 228.337 295.487C162.663 442.256 103.534 574.402 33.0495 603.952C-29.4854 630.17 -101.003 575.588 -194.041 378.757C-195.08 375.95 -196.124 373.099 -197.168 370.242C-96.5897 562.507 -21.7387 612.746 41.9188 583.204C112.13 550.622 168.675 420.967 231.112 277.801C298.324 123.683 372.373 -46.0876 477.605 -127.207L477.456 -127.388C372.178 -46.2277 298.122 123.567 230.897 277.709C168.478 420.831 111.952 550.448 41.8209 582.992C-21.8952 612.559 -96.8834 561.958 -197.801 368.516C-198.888 365.535 -199.979 362.515 -201.07 359.479C-92.1812 548.888 -13.7747 595.083 51.0504 561.927C120.61 526.348 174.487 399.393 233.628 260.036C297.616 109.257 367.776 -56.0219 470.582 -135.734L470.432 -135.916C367.581 -56.1648 297.411 109.14 233.412 259.945C174.29 399.26 120.427 526.177 50.944 561.717C-13.8941 594.881 -92.3857 548.432 -201.531 358.199C-202.64 355.108 -203.755 351.981 -204.869 348.836C-87.3139 535.402 -5.35922 577.314 60.5355 540.294C129.134 501.754 180.287 377.676 236.099 242.29C296.88 94.8532 363.201 -65.9662 463.555 -144.265L463.405 -144.448C363.005 -66.1079 296.674 94.738 235.881 242.2C180.086 377.546 128.948 501.592 60.4205 540.089C-5.46137 577.103 -87.4688 535 -205.228 347.826C-206.349 344.658 -207.474 341.458 -208.601 338.233C-81.9732 522.003 3.51909 559.397 70.3689 518.267C137.686 476.851 186.06 355.82 238.523 224.563C296.114 80.4741 358.644 -75.9208 456.526 -152.8L456.376 -152.982C358.448 -76.0625 295.907 80.3601 238.304 224.478C185.856 355.696 137.497 476.691 70.2453 518.066C3.42431 559.179 -82.0991 521.637 -208.894 337.393C-210.02 334.165 -211.151 330.91 -212.284 327.625C-76.1317 508.66 12.8692 541.289 80.5329 495.809C146.239 451.643 191.793 333.837 240.894 206.855C295.315 66.1147 354.105 -85.8871 449.49 -161.34L449.339 -161.523C353.908 -86.0304 295.106 66.002 240.674 206.772C191.586 333.719 146.044 451.49 80.4004 495.615C12.7758 541.07 -76.2389 508.319 -212.531 326.91C-213.661 323.633 -214.79 320.338 -215.924 317.003C-69.7576 495.338 22.6967 522.952 91.0033 472.889C154.773 426.153 197.473 311.742 243.218 189.169C294.491 51.7815 349.595 -95.8571 442.462 -169.877L442.312 -170.059C349.399 -96.0016 294.285 51.669 242.999 189.087C197.267 311.627 154.578 426.007 90.8662 472.702C22.6036 522.731 -69.8537 495.014 -216.133 316.377C-217.254 313.08 -218.379 309.733 -219.505 306.376C-62.8246 481.997 32.9892 504.335 101.741 449.486C163.259 400.407 203.084 289.546 245.489 171.5C293.638 37.467 345.127 -105.815 435.452 -178.391L435.3 -178.575C344.931 -105.96 293.43 37.3558 245.269 171.422C202.873 289.437 163.061 400.266 101.594 449.304C32.8921 504.112 -62.9161 481.685 -219.697 305.81C-219.903 305.199 -220.108 304.592 -220.315 303.974C-221.253 301.169 -222.181 298.425 -223.117 295.651C-55.3441 468.591 43.7242 485.408 112.692 425.59C171.666 374.441 208.607 267.278 247.706 153.858C292.753 23.1808 340.68 -115.784 428.435 -186.908L428.284 -187.092C340.482 -115.928 292.544 23.0708 247.483 153.783C208.394 267.173 171.462 374.305 112.538 425.412C43.6244 485.184 -55.4294 468.289 -223.289 295.141C-224.452 291.691 -225.612 288.244 -226.767 284.839C-47.3048 455.081 54.8689 466.13 123.795 401.2C179.957 348.295 214.023 244.956 249.863 136.237C291.835 8.91992 336.254 -125.763 421.413 -195.431L421.26 -195.616C336.054 -125.91 291.623 8.80951 249.64 136.164C213.809 244.855 179.75 348.165 123.633 401.03C54.7604 465.911 -47.3935 454.787 -226.93 284.368C-228.118 280.867 -229.304 277.385 -230.484 273.932C-38.7127 441.422 66.3808 446.481 134.979 376.339C188.102 322.021 219.317 222.615 251.966 118.64C290.889 -5.31371 331.854 -135.757 414.39 -203.958L414.238 -204.143C331.653 -135.905 290.677 -5.42132 251.741 118.571C219.103 222.514 187.895 321.896 134.813 376.173C66.2671 446.258 -38.7977 441.132 -230.633 273.489C-231.851 269.933 -233.06 266.427 -234.27 262.923C-29.5788 427.54 78.2087 426.427 146.163 351.037C196.065 295.678 224.469 200.275 254.007 101.064C289.909 -19.5265 327.5 -145.735 407.389 -212.461L407.236 -212.646C327.299 -145.883 289.695 -19.6328 253.782 100.998C224.251 200.185 195.855 295.561 145.989 350.88C78.0906 426.208 -29.6708 427.251 -234.412 262.504C-235.645 258.932 -236.876 255.379 -238.101 251.86C-19.9172 413.406 90.2925 405.96 157.263 325.358C203.81 269.336 229.459 177.986 255.985 83.516C288.899 -33.7066 323.176 -155.717 400.389 -220.958L400.235 -221.145C322.973 -155.865 288.683 -33.8133 255.758 83.4511C229.24 177.897 203.598 269.223 157.08 325.208C90.163 405.746 -20.0138 413.123 -238.242 251.466C-239.163 248.823 -240.084 246.176 -241.002 243.555L-241.195 243.714C-240.324 246.202 -239.452 248.71 -238.579 251.216C-240.56 249.748 -242.546 248.273 -244.543 246.779L-244.627 246.543L-244.923 246.787L-244.738 246.925C-243.542 250.27 -242.339 253.661 -241.137 257.057C-243.126 255.439 -245.124 253.802 -247.132 252.153L-248.126 249.422L-248.319 249.581L-247.491 251.858L-249.288 250.379L-249.473 250.531L-247.332 252.292C-246.195 255.419 -245.054 258.565 -243.911 261.736C-245.921 259.939 -247.934 258.135 -249.96 256.306L-251.489 252.189L-251.681 252.347L-250.337 255.969C-251.244 255.15 -252.154 254.322 -253.069 253.49L-253.25 253.64C-252.217 254.579 -251.188 255.516 -250.161 256.441C-249.111 259.274 -248.064 262.092 -247.008 264.962C-249.052 262.952 -251.119 260.894 -253.184 258.843C-253.693 257.5 -254.199 256.168 -254.706 254.836L-254.897 254.993C-254.46 256.139 -254.024 257.288 -253.585 258.444C-254.415 257.619 -255.243 256.794 -256.075 255.964L-256.258 256.115C-255.298 257.07 -254.343 258.022 -253.386 258.973C-252.485 261.351 -251.581 263.756 -250.676 266.16C-252.787 263.873 -254.91 261.554 -257.041 259.22L-257.764 257.355L-257.956 257.513L-257.48 258.737L-258.322 257.814L-258.503 257.964L-257.244 259.343C-256.846 260.367 -256.454 261.369 -256.054 262.398L-256.053 262.403L-256.047 262.413C-255.369 263.624 -254.697 264.807 -254.023 266.001C-255.936 263.714 -257.856 261.407 -259.787 259.078L-259.809 259.042L-259.995 259.195L-259.98 259.213C-258.612 261.428 -257.238 263.666 -255.88 265.845C-257.391 263.854 -258.898 261.877 -260.42 259.851L-260.554 259.655L-260.744 259.812L-260.742 259.815Z" fill="#126998" fill-opacity="0.5"/>
<rect width="588" height="749" transform="matrix(1 0 0 -1 -105 440)" fill="url(#paint0_radial_290_11118)"/>
<rect width="247.665" height="82.5549" transform="translate(62.3706 187.999)" fill="url(#paint1_radial_290_11118)"/>
<g clip-path="url(#clip1_290_11118)" filter="url(#filter0_f_290_11118)">
<rect width="457.767" height="260.874" transform="translate(-42.6804 175.615)" fill="white" fill-opacity="0.01"/>
<g opacity="0.2">
<rect width="457.354" height="260.874" transform="translate(-42.4741 175.615)" fill="url(#paint2_linear_290_11118)"/>
</g>
</g>
</g>
<defs>
<filter id="filter0_f_290_11118" x="-201.186" y="17.11" width="774.778" height="577.884" filterUnits="userSpaceOnUse" color-interpolation-filters="sRGB">
<feFlood flood-opacity="0" result="BackgroundImageFix"/>
<feBlend mode="normal" in="SourceGraphic" in2="BackgroundImageFix" result="shape"/>
<feGaussianBlur stdDeviation="79.2527" result="effect1_foregroundBlur_290_11118"/>
</filter>
<radialGradient id="paint0_radial_290_11118" cx="0" cy="0" r="1" gradientUnits="userSpaceOnUse" gradientTransform="translate(294 -1.11976e-05) rotate(90) scale(339.616 290.365)">
<stop stop-color="#5EB0EF" stop-opacity="0.5"/>
<stop offset="1" stop-opacity="0"/>
</radialGradient>
<radialGradient id="paint1_radial_290_11118" cx="0" cy="0" r="1" gradientUnits="userSpaceOnUse" gradientTransform="translate(123.832 41.2775) rotate(18.4349) scale(130.531 78.3185)">
<stop stop-color="#C7C7C7" stop-opacity="0.05"/>
<stop offset="0.7" stop-opacity="0"/>
</radialGradient>
<linearGradient id="paint2_linear_290_11118" x1="0" y1="130.437" x2="457.354" y2="130.437" gradientUnits="userSpaceOnUse">
<stop stop-color="#1A3861"/>
<stop offset="1" stop-color="#182948"/>
</linearGradient>
<clipPath id="clip0_290_11118">
<rect width="361" height="440" fill="white"/>
</clipPath>
<clipPath id="clip1_290_11118">
<rect width="457.767" height="260.874" fill="white" transform="translate(-42.6804 175.615)"/>
</clipPath>
</defs>
</svg>
