<svg width="188" height="57" viewBox="0 0 188 57" fill="none" xmlns="http://www.w3.org/2000/svg">
<path fill-rule="evenodd" clip-rule="evenodd" d="M68.2779 13.1387C71.4745 5.17718 79.0466 0 88.5642 0C101.249 0 110.215 9.22082 110.215 21.9206C110.215 32.8355 103.624 41.199 93.6383 43.2806C92.0701 41.6675 90.6595 39.9084 89.4257 38.0271C89.0148 37.4116 88.6239 36.772 88.253 36.1084C88.5026 36.2293 88.7597 36.3281 89.0136 36.4257L89.0567 36.4422C90.329 36.8943 91.6698 37.1237 93.02 37.1203L93.4734 37.1018L96.771 36.9781L93.9846 35.1995C92.8859 34.5066 91.8809 33.6754 90.9941 32.7263C95.2706 31.6422 98.3621 28.0994 98.3621 22.3678C98.3621 15.5996 94.2339 10.7686 88.5621 10.7686C87.2027 10.7513 85.8561 11.0327 84.6174 11.593L84.4937 11.1994L82.948 10.9747L84.3495 5.1339L79.669 8.20888L79.7885 4.14669L78.1397 5.17718C74.7535 7.30205 72.571 8.98999 71.7239 9.7979C71.2316 10.2635 70.7767 10.7673 70.3636 11.3045C70.1525 11.602 69.9592 11.9116 69.7845 12.2319C69.736 12.3419 69.6744 12.4457 69.6011 12.5411C69.3827 12.777 69.2067 12.8414 68.7886 12.9943L68.7149 13.0213C68.5891 13.0604 68.4428 13.0975 68.2779 13.1387ZM46.2461 25.9852L53.849 0.964925H66.2396L53.4924 42.8626H41.1039L41.1616 42.743L33.5607 17.7846L25.9557 42.7492L26.0175 42.8688H13.629L0.879761 0.964925H13.2683L20.8713 25.9852L28.4722 0.964925H38.6472L46.2461 25.9852ZM127.214 0.964925V33.2852H149.359V42.8688H115.363V0.964925H127.214ZM187.12 10.5423V0.964925H153.124V42.8688H164.975V26.7004H184.725V17.1251H164.975V10.5423H187.12ZM89.8255 32.9551C89.5017 32.5871 89.1989 32.2011 88.9186 31.7989C87.3999 29.6772 86.4106 27.223 86.0333 24.6411C84.378 25.7565 82.974 27.2054 81.9113 28.895C81.887 27.5894 82.2909 26.3117 83.0613 25.2574C83.9496 24.0414 85.1223 23.5241 85.7901 23.2335C86.7567 22.8066 87.5096 22.72 88.1383 22.6477C88.2321 22.6369 88.3231 22.6264 88.4116 22.6152C88.5951 22.5966 88.7599 22.5781 88.9248 22.5575C90.3675 22.2875 92.243 20.987 94.0649 16.3745C92.4391 15.6483 90.7342 15.1143 88.9846 14.7835C88.1014 14.6075 87.2054 14.5034 86.3053 14.4723C85.6458 14.4146 85.0481 14.4146 84.5102 14.4146C84.3832 14.0595 84.2629 13.708 84.1432 13.3584C84.0067 12.9593 83.871 12.5626 83.727 12.166H83.6425C83.17 12.0946 82.6975 12.0223 82.2243 11.95L82.2233 11.9498C81.605 11.8553 80.9856 11.7606 80.3635 11.6673H80.3223C80.2606 11.6684 80.1991 11.6621 80.1389 11.6487C79.6669 11.5683 79.2135 11.5024 78.7333 11.4426C78.6934 11.4324 78.6576 11.4272 78.6221 11.4221C78.586 11.4169 78.5502 11.4118 78.5107 11.4014C78.5206 10.9616 78.5364 10.5217 78.552 10.0843L78.5521 10.0823C78.5658 9.70067 78.5794 9.3209 78.589 8.94471V8.92617C78.6133 8.40386 78.6299 7.88985 78.6464 7.3784C78.6607 6.93527 78.675 6.49407 78.6941 6.0511C75.5594 8.01727 73.3356 9.70728 72.4432 10.5543C71.9991 10.9843 71.5859 11.445 71.2066 11.9331C70.8998 12.3371 70.7781 12.5681 70.6797 12.7549L70.6797 12.7549C70.5923 12.9207 70.5233 13.0517 70.3595 13.2377C69.9251 13.7055 69.5129 13.8406 69.0056 14.007C68.6657 14.1185 68.283 14.244 67.8224 14.4929C67.8224 14.4929 67.8039 14.4929 67.8039 14.5176C67.1022 14.9186 66.4838 15.4503 65.982 16.084C64.9309 17.2793 64.496 18.4747 64.1477 19.5258C63.6595 20.9878 63.409 22.5186 63.4058 24.0599C63.8843 23.4544 64.4722 22.944 65.1391 22.5554C65.5923 22.2881 66.0847 22.0933 66.5982 21.9784C65.5747 23.6907 64.9571 25.6149 64.7932 27.6032C64.6292 29.5914 64.923 31.5908 65.6522 33.4477C65.843 32.5615 66.1413 31.7018 66.5405 30.888C66.8595 30.2306 67.247 29.6089 67.6967 29.0331L67.7158 29.0122L67.7158 29.0121C67.7494 28.9754 67.7796 28.9424 67.8039 28.9094V28.9096C67.8039 29.0332 67.8039 29.198 67.8224 29.402V29.4226C67.9677 32.3345 69.0824 35.1143 70.9892 37.3199C72.896 39.5254 75.4855 41.0302 78.3458 41.5948C75.0194 40.7539 73.3479 39.0371 72.6925 38.2374C72.0743 37.5014 71.5788 36.6704 71.2251 35.7766C71.2202 35.7766 71.2155 35.7747 71.212 35.7712C71.2085 35.7677 71.2066 35.763 71.2066 35.7581C69.4641 31.5082 70.8654 26.4913 71.3849 24.6313L71.4127 24.5319C71.4745 24.3258 71.5405 24.1197 71.6002 23.9342C72.0102 22.6606 72.5431 21.4299 73.1913 20.2595C72.3086 20.6196 71.4648 21.0685 70.6728 21.5991C70.6258 21.6358 70.5743 21.6712 70.5227 21.7068C70.4814 21.7351 70.4401 21.7636 70.4007 21.7929C69.0896 22.7596 67.9712 23.9634 67.1032 25.3419C67.3464 24.1312 67.7116 22.9484 68.1934 21.8114C68.6002 20.846 69.0826 19.9143 69.6361 19.025C69.8422 18.6767 70.0483 18.3655 70.2544 18.0749C69.9638 18.1738 69.6567 18.281 69.3661 18.3861C69.1789 18.4529 68.9927 18.5198 68.8071 18.5865C68.1347 18.828 67.4699 19.0668 66.7899 19.2929C66.6613 19.3485 66.5299 19.3974 66.3962 19.4392C66.5223 18.9967 66.703 18.5716 66.9342 18.1738C67.1286 17.8203 67.3792 17.5008 67.6761 17.2278C67.9562 16.945 68.2841 16.714 68.6448 16.5456C69.4073 16.1334 70.7738 15.5996 73.4551 14.7319L73.6042 14.6835C74.5184 14.3866 75.0011 14.2299 75.3945 13.7015C76.0725 12.7967 75.8273 11.4756 75.5779 10.6739C75.2688 10.915 74.9596 11.1644 74.6505 11.4158C73.9868 11.9476 73.3706 12.4875 72.8121 13.0007C73.2498 12.0427 73.8354 11.1594 74.5474 10.3833C75.2009 9.67508 75.9584 9.07047 76.7939 8.59023C76.7014 9.14193 76.6539 9.70023 76.6517 10.2596C76.6782 11.3551 76.903 12.4368 77.3153 13.4521C78.2879 13.2156 79.3056 13.2383 80.2666 13.518C80.7171 13.6481 81.1462 13.8432 81.5403 14.0972C81.9659 14.3277 82.3497 14.6279 82.6759 14.9854C82.5987 15.0318 82.5214 15.0773 82.4441 15.1228C82.3153 15.1986 82.1865 15.2745 82.0576 15.3544C81.7238 15.1501 81.3711 14.9783 81.0045 14.8412C80.4761 14.6436 79.9194 14.5322 79.3557 14.5114C76.9175 14.3878 75.2667 15.9541 74.9596 16.2612C75.8175 16.9018 76.8277 17.3074 77.8903 17.438C78.5829 17.5292 79.2872 17.4287 79.9266 17.1474C80.7776 16.7712 81.6721 16.5019 82.5894 16.3457C83.9608 16.1291 85.3541 16.0869 86.7361 16.22C87.5069 16.2859 88.2467 16.3663 88.966 16.4694C89.5225 16.5291 89.978 16.5951 90.2665 16.6528C90.2524 17.0431 90.3227 17.4319 90.4726 17.7925C90.609 18.101 90.8027 18.3807 91.0435 18.6169C90.3696 20.1193 89.5184 20.8057 88.863 21.1313C88.6124 21.2594 88.3474 21.3569 88.0736 21.4219C87.8138 21.4765 87.556 21.4995 87.2597 21.526C86.7617 21.5705 86.1552 21.6247 85.248 21.8547C84.2012 22.1173 83.1946 22.5201 82.2555 23.0521C81.227 23.6757 80.3136 24.4719 79.5556 25.4058C79.3907 25.6119 79.2259 25.8386 79.061 26.0879C79.1548 25.623 79.285 25.1661 79.4505 24.7215V24.703C79.7975 23.6735 80.306 22.7058 80.9571 21.8361C81.6938 20.8393 82.6009 19.9804 83.6363 19.2991C82.0418 19.7122 80.5435 20.4334 79.2258 21.4219C78.4389 22.0116 77.7298 22.6986 77.1154 23.4664C74.8298 26.3311 74.5598 29.5731 74.6649 31.6546C74.6952 32.2154 74.7489 32.687 74.7908 33.0547C74.8059 33.187 74.8194 33.3059 74.8298 33.4106C75.3471 37.3553 77.3854 40.0552 78.5395 41.3598C78.5841 41.4094 78.6256 41.4569 78.665 41.502L78.6652 41.5023C78.7388 41.5865 78.8049 41.6623 78.8693 41.7267C78.2951 39.6397 78.0928 37.4679 78.2716 35.3108C78.4076 33.7564 78.7344 32.2246 79.2444 30.7499C79.6793 32.4461 81.3054 37.8871 86.5877 41.4175C88.0624 42.4113 89.6862 43.1634 91.398 43.6454C91.9297 43.7897 92.4285 43.9154 92.8819 43.9999C92.7464 43.861 92.6262 43.7249 92.5065 43.5893L92.5064 43.5893L92.4285 43.5012C89.5593 40.4665 87.2423 36.954 85.5819 33.1221C86.6863 34.1577 87.9898 34.9578 89.4133 35.4736C90.7041 35.9237 92.0683 36.1265 93.4342 36.0713C92.0815 35.2199 90.8649 34.1694 89.8255 32.9551ZM79.3021 16.659L77.0124 15.7109C78.3314 15.6298 79.6504 15.5508 80.9694 15.4739L79.3021 16.659ZM81.8062 10.7751C82.0755 9.6594 82.3441 8.5451 82.6121 7.43217C81.596 8.09168 80.5861 8.75119 79.5577 9.43338C79.595 9.75033 79.6154 10.101 79.6342 10.4244C79.6362 10.4585 79.6382 10.4923 79.6401 10.5257L80.3821 10.6308C80.8582 10.6926 81.3322 10.7339 81.8062 10.7751Z" fill="url(#paint0_linear_116_9040)"/>
<path d="M8.02841 55V50.6364H10.6449V51.1051H8.55682V52.5795H10.4489V53.0483H8.55682V55H8.02841ZM20.2317 52.8182C20.2317 53.2784 20.1486 53.6761 19.9824 54.0114C19.8162 54.3466 19.5882 54.6051 19.2985 54.7869C19.0087 54.9688 18.6777 55.0597 18.3056 55.0597C17.9334 55.0597 17.6025 54.9688 17.3127 54.7869C17.0229 54.6051 16.7949 54.3466 16.6287 54.0114C16.4625 53.6761 16.3794 53.2784 16.3794 52.8182C16.3794 52.358 16.4625 51.9602 16.6287 51.625C16.7949 51.2898 17.0229 51.0312 17.3127 50.8494C17.6025 50.6676 17.9334 50.5767 18.3056 50.5767C18.6777 50.5767 19.0087 50.6676 19.2985 50.8494C19.5882 51.0312 19.8162 51.2898 19.9824 51.625C20.1486 51.9602 20.2317 52.358 20.2317 52.8182ZM19.7203 52.8182C19.7203 52.4403 19.6571 52.1214 19.5307 51.8615C19.4057 51.6016 19.236 51.4048 19.0215 51.2713C18.8084 51.1378 18.5698 51.071 18.3056 51.071C18.0414 51.071 17.802 51.1378 17.5875 51.2713C17.3745 51.4048 17.2047 51.6016 17.0783 51.8615C16.9533 52.1214 16.8908 52.4403 16.8908 52.8182C16.8908 53.196 16.9533 53.5149 17.0783 53.7749C17.2047 54.0348 17.3745 54.2315 17.5875 54.3651C17.802 54.4986 18.0414 54.5653 18.3056 54.5653C18.5698 54.5653 18.8084 54.4986 19.0215 54.3651C19.236 54.2315 19.4057 54.0348 19.5307 53.7749C19.6571 53.5149 19.7203 53.196 19.7203 52.8182ZM26.1202 55V50.6364H27.5946C27.9355 50.6364 28.2154 50.6946 28.4341 50.8111C28.6529 50.9261 28.8148 51.0845 28.9199 51.2862C29.025 51.4879 29.0776 51.7173 29.0776 51.9744C29.0776 52.2315 29.025 52.4595 28.9199 52.6584C28.8148 52.8572 28.6536 53.0135 28.4363 53.1271C28.2189 53.2393 27.9412 53.2955 27.6032 53.2955H26.41V52.8182H27.5861C27.8191 52.8182 28.0066 52.7841 28.1486 52.7159C28.2921 52.6477 28.3958 52.5511 28.4597 52.4261C28.525 52.2997 28.5577 52.1491 28.5577 51.9744C28.5577 51.7997 28.525 51.647 28.4597 51.5163C28.3944 51.3857 28.29 51.2848 28.1465 51.2138C28.003 51.1413 27.8134 51.1051 27.5776 51.1051H26.6486V55H26.1202ZM28.1742 53.0398L29.248 55H28.6344L27.5776 53.0398H28.1742ZM42.9922 55H41.6456V50.6364H43.0518C43.4751 50.6364 43.8374 50.7237 44.1385 50.8984C44.4396 51.0717 44.6705 51.321 44.831 51.6463C44.9915 51.9702 45.0717 52.358 45.0717 52.8097C45.0717 53.2642 44.9908 53.6555 44.8288 53.9837C44.6669 54.3104 44.4311 54.5618 44.1214 54.7379C43.8118 54.9126 43.4354 55 42.9922 55ZM42.174 54.5312H42.9581C43.3189 54.5312 43.6179 54.4616 43.8551 54.3224C44.0923 54.1832 44.2692 53.9851 44.3857 53.728C44.5021 53.4709 44.5604 53.1648 44.5604 52.8097C44.5604 52.4574 44.5028 52.1541 44.3878 51.8999C44.2727 51.6442 44.1009 51.4482 43.8722 51.3118C43.6435 51.174 43.3587 51.1051 43.0178 51.1051H42.174V54.5312ZM51.4865 50.6364V55H50.9581V50.6364H51.4865ZM60.5289 52C60.4821 51.8565 60.4203 51.728 60.3436 51.6143C60.2683 51.4993 60.1781 51.4013 60.073 51.3203C59.9693 51.2393 59.8514 51.1776 59.7193 51.1349C59.5872 51.0923 59.4423 51.071 59.2846 51.071C59.0261 51.071 58.791 51.1378 58.5794 51.2713C58.3677 51.4048 58.1994 51.6016 58.0744 51.8615C57.9494 52.1214 57.8869 52.4403 57.8869 52.8182C57.8869 53.196 57.9501 53.5149 58.0765 53.7749C58.2029 54.0348 58.3741 54.2315 58.59 54.3651C58.8059 54.4986 59.0488 54.5653 59.3187 54.5653C59.5687 54.5653 59.7889 54.5121 59.9792 54.4055C60.171 54.2976 60.3201 54.1456 60.4267 53.9496C60.5346 53.7521 60.5886 53.5199 60.5886 53.2528L60.7505 53.2869H59.438V52.8182H61.1V53.2869C61.1 53.6463 61.0233 53.9588 60.8699 54.2244C60.7179 54.4901 60.5076 54.696 60.2392 54.8423C59.9721 54.9872 59.6653 55.0597 59.3187 55.0597C58.9324 55.0597 58.5929 54.9688 58.3002 54.7869C58.0091 54.6051 57.7818 54.3466 57.6184 54.0114C57.4565 53.6761 57.3755 53.2784 57.3755 52.8182C57.3755 52.473 57.4217 52.1626 57.514 51.8871C57.6078 51.6101 57.7399 51.3743 57.9103 51.1797C58.0808 50.9851 58.2825 50.8359 58.5154 50.7322C58.7484 50.6286 59.0048 50.5767 59.2846 50.5767C59.5147 50.5767 59.7292 50.6115 59.9281 50.6811C60.1284 50.7493 60.3066 50.8466 60.4629 50.973C60.6206 51.098 60.752 51.2479 60.8571 51.4226C60.9622 51.5959 61.0346 51.7884 61.0744 52H60.5289ZM67.5334 50.6364V55H67.005V50.6364H67.5334ZM73.3542 51.1051V50.6364H76.627V51.1051H75.2548V55H74.7264V51.1051H73.3542ZM82.1117 55H81.5577L83.16 50.6364H83.7054L85.3077 55H84.7537L83.4498 51.3267H83.4157L82.1117 55ZM82.3162 53.2955H84.5492V53.7642H82.3162V53.2955ZM90.9874 55V50.6364H91.5158V54.5312H93.5442V55H90.9874ZM108.436 51.7273C108.411 51.5114 108.307 51.3438 108.125 51.2244C107.943 51.1051 107.72 51.0455 107.456 51.0455C107.263 51.0455 107.094 51.0767 106.949 51.1392C106.806 51.2017 106.693 51.2876 106.612 51.397C106.533 51.5064 106.493 51.6307 106.493 51.7699C106.493 51.8864 106.521 51.9865 106.576 52.0703C106.633 52.1527 106.705 52.2216 106.794 52.277C106.882 52.331 106.974 52.3757 107.07 52.4112C107.167 52.4453 107.256 52.473 107.337 52.4943L107.78 52.6136C107.894 52.6435 108.02 52.6847 108.159 52.7372C108.3 52.7898 108.434 52.8615 108.562 52.9524C108.691 53.0419 108.798 53.157 108.882 53.2976C108.965 53.4382 109.007 53.6108 109.007 53.8153C109.007 54.0511 108.945 54.2642 108.822 54.4545C108.7 54.6449 108.521 54.7962 108.285 54.9084C108.051 55.0206 107.766 55.0767 107.431 55.0767C107.118 55.0767 106.847 55.0263 106.619 54.9254C106.392 54.8246 106.213 54.6839 106.082 54.5036C105.953 54.3232 105.879 54.1136 105.862 53.875H106.408C106.422 54.0398 106.477 54.1761 106.574 54.2841C106.672 54.3906 106.796 54.4702 106.945 54.5227C107.095 54.5739 107.257 54.5994 107.431 54.5994C107.632 54.5994 107.813 54.5668 107.974 54.5014C108.134 54.4347 108.262 54.3423 108.355 54.2244C108.449 54.1051 108.496 53.9659 108.496 53.8068C108.496 53.6619 108.455 53.544 108.374 53.4531C108.294 53.3622 108.187 53.2884 108.055 53.2315C107.923 53.1747 107.78 53.125 107.627 53.0824L107.09 52.929C106.749 52.831 106.479 52.6911 106.28 52.5092C106.081 52.3274 105.982 52.0895 105.982 51.7955C105.982 51.5511 106.048 51.3381 106.18 51.1562C106.313 50.973 106.492 50.831 106.717 50.7301C106.943 50.6278 107.195 50.5767 107.473 50.5767C107.754 50.5767 108.004 50.6271 108.223 50.728C108.442 50.8274 108.615 50.9638 108.743 51.1371C108.872 51.3104 108.941 51.5071 108.948 51.7273H108.436ZM118.558 52.8182C118.558 53.2784 118.475 53.6761 118.309 54.0114C118.142 54.3466 117.914 54.6051 117.625 54.7869C117.335 54.9688 117.004 55.0597 116.632 55.0597C116.26 55.0597 115.929 54.9688 115.639 54.7869C115.349 54.6051 115.121 54.3466 114.955 54.0114C114.789 53.6761 114.706 53.2784 114.706 52.8182C114.706 52.358 114.789 51.9602 114.955 51.625C115.121 51.2898 115.349 51.0312 115.639 50.8494C115.929 50.6676 116.26 50.5767 116.632 50.5767C117.004 50.5767 117.335 50.6676 117.625 50.8494C117.914 51.0312 118.142 51.2898 118.309 51.625C118.475 51.9602 118.558 52.358 118.558 52.8182ZM118.047 52.8182C118.047 52.4403 117.983 52.1214 117.857 51.8615C117.732 51.6016 117.562 51.4048 117.348 51.2713C117.135 51.1378 116.896 51.071 116.632 51.071C116.368 51.071 116.128 51.1378 115.914 51.2713C115.701 51.4048 115.531 51.6016 115.404 51.8615C115.279 52.1214 115.217 52.4403 115.217 52.8182C115.217 53.196 115.279 53.5149 115.404 53.7749C115.531 54.0348 115.701 54.2315 115.914 54.3651C116.128 54.4986 116.368 54.5653 116.632 54.5653C116.896 54.5653 117.135 54.4986 117.348 54.3651C117.562 54.2315 117.732 54.0348 117.857 53.7749C117.983 53.5149 118.047 53.196 118.047 52.8182ZM124.446 55V50.6364H124.975V54.5312H127.003V55H124.446ZM135.685 50.6364H136.213V53.5256C136.213 53.8239 136.143 54.0902 136.002 54.3246C135.863 54.5575 135.667 54.7415 135.412 54.8764C135.158 55.0099 134.86 55.0767 134.517 55.0767C134.175 55.0767 133.877 55.0099 133.623 54.8764C133.368 54.7415 133.171 54.5575 133.03 54.3246C132.891 54.0902 132.821 53.8239 132.821 53.5256V50.6364H133.35V53.483C133.35 53.696 133.397 53.8857 133.49 54.0518C133.584 54.2166 133.718 54.3466 133.891 54.4418C134.066 54.5355 134.275 54.5824 134.517 54.5824C134.76 54.5824 134.969 54.5355 135.144 54.4418C135.319 54.3466 135.452 54.2166 135.544 54.0518C135.638 53.8857 135.685 53.696 135.685 53.483V50.6364ZM142.03 51.1051V50.6364H145.303V51.1051H143.931V55H143.402V51.1051H142.03ZM151.647 50.6364V55H151.118V50.6364H151.647ZM161.388 52.8182C161.388 53.2784 161.305 53.6761 161.139 54.0114C160.972 54.3466 160.744 54.6051 160.455 54.7869C160.165 54.9688 159.834 55.0597 159.462 55.0597C159.09 55.0597 158.759 54.9688 158.469 54.7869C158.179 54.6051 157.951 54.3466 157.785 54.0114C157.619 53.6761 157.536 53.2784 157.536 52.8182C157.536 52.358 157.619 51.9602 157.785 51.625C157.951 51.2898 158.179 51.0312 158.469 50.8494C158.759 50.6676 159.09 50.5767 159.462 50.5767C159.834 50.5767 160.165 50.6676 160.455 50.8494C160.744 51.0312 160.972 51.2898 161.139 51.625C161.305 51.9602 161.388 52.358 161.388 52.8182ZM160.877 52.8182C160.877 52.4403 160.813 52.1214 160.687 51.8615C160.562 51.6016 160.392 51.4048 160.178 51.2713C159.965 51.1378 159.726 51.071 159.462 51.071C159.198 51.071 158.958 51.1378 158.744 51.2713C158.531 51.4048 158.361 51.6016 158.235 51.8615C158.11 52.1214 158.047 52.4403 158.047 52.8182C158.047 53.196 158.11 53.5149 158.235 53.7749C158.361 54.0348 158.531 54.2315 158.744 54.3651C158.958 54.4986 159.198 54.5653 159.462 54.5653C159.726 54.5653 159.965 54.4986 160.178 54.3651C160.392 54.2315 160.562 54.0348 160.687 53.7749C160.813 53.5149 160.877 53.196 160.877 52.8182ZM170.737 50.6364V55H170.225L167.847 51.5739H167.805V55H167.276V50.6364H167.788L170.174 54.071H170.217V50.6364H170.737ZM179.18 51.7273C179.155 51.5114 179.051 51.3438 178.869 51.2244C178.688 51.1051 178.464 51.0455 178.2 51.0455C178.007 51.0455 177.838 51.0767 177.693 51.1392C177.55 51.2017 177.438 51.2876 177.357 51.397C177.277 51.5064 177.237 51.6307 177.237 51.7699C177.237 51.8864 177.265 51.9865 177.32 52.0703C177.377 52.1527 177.45 52.2216 177.538 52.277C177.626 52.331 177.718 52.3757 177.815 52.4112C177.911 52.4453 178 52.473 178.081 52.4943L178.524 52.6136C178.638 52.6435 178.764 52.6847 178.903 52.7372C179.044 52.7898 179.178 52.8615 179.306 52.9524C179.435 53.0419 179.542 53.157 179.626 53.2976C179.71 53.4382 179.751 53.6108 179.751 53.8153C179.751 54.0511 179.69 54.2642 179.566 54.4545C179.444 54.6449 179.265 54.7962 179.029 54.9084C178.795 55.0206 178.51 55.0767 178.175 55.0767C177.862 55.0767 177.592 55.0263 177.363 54.9254C177.136 54.8246 176.957 54.6839 176.826 54.5036C176.697 54.3232 176.624 54.1136 176.607 53.875H177.152C177.166 54.0398 177.222 54.1761 177.318 54.2841C177.416 54.3906 177.54 54.4702 177.689 54.5227C177.839 54.5739 178.001 54.5994 178.175 54.5994C178.376 54.5994 178.558 54.5668 178.718 54.5014C178.879 54.4347 179.006 54.3423 179.099 54.2244C179.193 54.1051 179.24 53.9659 179.24 53.8068C179.24 53.6619 179.2 53.544 179.119 53.4531C179.038 53.3622 178.931 53.2884 178.799 53.2315C178.667 53.1747 178.524 53.125 178.371 53.0824L177.834 52.929C177.493 52.831 177.223 52.6911 177.024 52.5092C176.825 52.3274 176.726 52.0895 176.726 51.7955C176.726 51.5511 176.792 51.3381 176.924 51.1562C177.058 50.973 177.237 50.831 177.461 50.7301C177.687 50.6278 177.939 50.5767 178.217 50.5767C178.499 50.5767 178.749 50.6271 178.967 50.728C179.186 50.8274 179.359 50.9638 179.487 51.1371C179.616 51.3104 179.685 51.5071 179.692 51.7273H179.18Z" fill="#C8C8C8"/>
<defs>
<linearGradient id="paint0_linear_116_9040" x1="-42.3039" y1="-17.2173" x2="21.0895" y2="134.87" gradientUnits="userSpaceOnUse">
<stop stop-color="#F4F4F5"/>
<stop offset="1" stop-color="#52525B"/>
</linearGradient>
</defs>
</svg>
